<?xml version="1.0" encoding="UTF-8" standalone="no"?>
<!-- Created with Inkscape (http://www.inkscape.org/) -->
<svg
   xmlns:dc="http://purl.org/dc/elements/1.1/"
   xmlns:cc="http://web.resource.org/cc/"
   xmlns:rdf="http://www.w3.org/1999/02/22-rdf-syntax-ns#"
   xmlns:svg="http://www.w3.org/2000/svg"
   xmlns="http://www.w3.org/2000/svg"
   xmlns:xlink="http://www.w3.org/1999/xlink"
   xmlns:sodipodi="http://sodipodi.sourceforge.net/DTD/sodipodi-0.dtd"
   xmlns:inkscape="http://www.inkscape.org/namespaces/inkscape"
   width="210mm"
   height="297mm"
   id="svg1942"
   sodipodi:version="0.32"
   inkscape:version="0.44.1"
   sodipodi:docbase="C:\Projets\CMD\Communication\Images"
   sodipodi:docname="TEESHIRT.svg"
   inkscape:export-filename="C:\Projets\CMD\Communication\Images\TEESHIRT.png"
   inkscape:export-xdpi="127"
   inkscape:export-ydpi="127">
  <defs
     id="defs3">
    <linearGradient
       id="linearGradient10923">
      <stop
         style="stop-color:white;stop-opacity:1;"
         offset="0"
         id="stop10925" />
      <stop
         style="stop-color:#747474;stop-opacity:1;"
         offset="1"
         id="stop10927" />
    </linearGradient>
    <linearGradient
       id="linearGradient4425">
      <stop
         style="stop-color:#adadad;stop-opacity:1;"
         offset="0"
         id="stop4427" />
      <stop
         style="stop-color:#545454;stop-opacity:1;"
         offset="1"
         id="stop4429" />
    </linearGradient>
    <linearGradient
       inkscape:collect="always"
       id="linearGradient4407">
      <stop
         style="stop-color:white;stop-opacity:1;"
         offset="0"
         id="stop4409" />
      <stop
         style="stop-color:white;stop-opacity:0;"
         offset="1"
         id="stop4411" />
    </linearGradient>
    <radialGradient
       inkscape:collect="always"
       xlink:href="#linearGradient4407"
       id="radialGradient4413"
       cx="333.86526"
       cy="485.10944"
       fx="333.86526"
       fy="485.10944"
       r="336.80168"
       gradientTransform="matrix(1.930892e-6,-0.457725,0.475399,0,103.2438,669.0613)"
       gradientUnits="userSpaceOnUse" />
    <radialGradient
       inkscape:collect="always"
       xlink:href="#linearGradient4425"
       id="radialGradient4433"
       cx="593.95209"
       cy="647.33978"
       fx="593.95209"
       fy="647.33978"
       r="334.56418"
       gradientTransform="matrix(0,-0.60073,0.665502,-1.305584e-5,-80.48997,913.6995)"
       gradientUnits="userSpaceOnUse" />
    <radialGradient
       inkscape:collect="always"
       xlink:href="#linearGradient10923"
       id="radialGradient10929"
       cx="405.40741"
       cy="825.75562"
       fx="405.40741"
       fy="825.75562"
       r="203.9319"
       gradientTransform="matrix(-8.351424e-7,-0.669208,0.930982,-1.847996e-7,-500.0555,1082.134)"
       gradientUnits="userSpaceOnUse" />
    <radialGradient
       inkscape:collect="always"
       xlink:href="#linearGradient10923"
       id="radialGradient11009"
       gradientUnits="userSpaceOnUse"
       gradientTransform="matrix(-8.351424e-7,-0.669208,0.930982,-1.847996e-7,-170.2772,835.9747)"
       cx="405.40741"
       cy="825.75562"
       fx="405.40741"
       fy="825.75562"
       r="203.9319" />
  </defs>
  <sodipodi:namedview
     inkscape:document-units="mm"
     id="base"
     pagecolor="#ffffff"
     bordercolor="#666666"
     borderopacity="1.0"
     inkscape:pageopacity="0.0"
     inkscape:pageshadow="2"
     inkscape:zoom="1.0643515"
     inkscape:cx="386.94933"
     inkscape:cy="358.02868"
     inkscape:current-layer="layer1"
     inkscape:window-width="1440"
     inkscape:window-height="814"
     inkscape:window-x="-4"
     inkscape:window-y="-4" />
  <metadata
     id="metadata4">
    <rdf:RDF>
      <cc:Work
         rdf:about="">
        <dc:format>image/svg+xml</dc:format>
        <dc:type
           rdf:resource="http://purl.org/dc/dcmitype/StillImage" />
      </cc:Work>
    </rdf:RDF>
  </metadata>
  <g
     inkscape:label="Layer 1"
     inkscape:groupmode="layer"
     id="layer1">
    <rect
       style="opacity:1;fill:black;fill-opacity:1;fill-rule:evenodd;stroke:none;stroke-width:1;stroke-linecap:round;stroke-linejoin:round;stroke-miterlimit:4;stroke-dasharray:none;stroke-opacity:1"
       id="rect2947"
       width="744.09448"
       height="1052.3622"
       x="0"
       y="-2.2107222e-005"
       sodipodi:insensitive="true" />
    <g
       id="g4435"
       transform="translate(-782.0349,-119.6691)">
      <path
         style="fill:url(#radialGradient4413);fill-opacity:1;stroke:black;stroke-width:1.77165353;stroke-linecap:round;stroke-linejoin:round;marker-start:none;stroke-miterlimit:4;stroke-dasharray:none;stroke-opacity:1"
         d="M 261.3975,802.36381 C 228.66274,797.64801 208.13878,790.89574 190.12129,778.91434 C 166.79832,763.40485 155.97339,742.24016 161.25885,722.4831 C 162.63717,717.33094 166.25231,709.7477 169.83993,704.4831 C 172.8447,700.07381 172.42131,696.71658 168.1475,691.06305 C 161.88757,682.7822 159.3975,675.07668 159.3975,663.98615 C 159.3975,656.20202 159.8497,653.33963 161.8975,648.16141 C 168.91043,630.42796 190.07979,612.72581 216.05116,602.87727 C 221.55068,600.79181 229.39091,598.34231 233.47389,597.43393 C 237.91219,596.44651 240.8975,595.27474 240.8975,594.5201 C 240.8975,593.82587 240.01431,589.70854 238.93486,585.37048 C 237.85541,581.03242 236.66293,573.08045 236.28489,567.69943 C 235.90686,562.31842 235.30517,557.73505 234.94779,557.51418 C 234.59042,557.29331 230.4954,558.21115 225.84776,559.55383 C 205.66339,565.38499 173.9213,568.20656 152.3975,566.08288 C 106.73748,561.57774 71.15489,545.00143 55.46052,520.92435 C 49.10233,511.1701 47.59443,505.70717 48.06644,494.13657 C 48.40362,485.87118 48.91512,483.51331 51.62372,477.73869 C 53.36363,474.02927 55.93701,469.48679 57.34234,467.6443 C 60.74208,463.18702 60.57078,461.15247 56.32793,455.59577 C 51.28107,448.9861 47.90104,441.06499 46.78267,433.22642 C 45.16662,421.89968 47.43219,413.00624 54.80275,401.74368 C 67.3696,382.54097 91.62806,368.11226 125.75495,359.54196 C 157.73308,351.51128 199.45659,352.29062 231.46337,361.51644 C 287.59145,377.69515 313.50771,417.20893 289.98505,450.74278 C 285.4805,457.16446 285.30185,457.78625 287.21116,460.39738 C 288.4514,462.09351 288.81042,462.0182 293.63457,459.04986 C 300.26318,454.97124 317.23711,448.61558 327.3975,446.40778 C 338.9891,443.889 360.34145,444.14742 372.8975,446.95846 C 384.59569,449.57745 394.51516,453.08828 402.3975,457.3995 C 405.6975,459.20443 410.6475,461.91455 413.3975,463.42199 C 433.33981,474.35359 451.08653,496.70457 459.89513,521.9831 C 461.71584,527.2081 463.49893,531.82331 463.85754,532.23913 C 464.21615,532.65495 466.71232,532.58365 469.40458,532.08068 C 473.11622,531.38727 474.96973,530.35838 477.07164,527.82465 C 480.66645,523.49132 480.65429,519.7328 477.03057,515.127 C 467.52326,503.04308 464.19993,485.60821 468.87074,472.3189 C 480.93671,437.98906 533.47476,413.0684 593.8975,413.01429 C 627.36244,412.98432 653.99216,418.5245 676.8752,430.2774 C 698.9151,441.59726 712.12002,455.09037 717.0726,471.35206 C 721.00807,484.27413 717.99386,500.1238 709.47755,511.28926 C 708.05852,513.1497 706.8975,515.71196 706.8975,516.98318 C 706.8975,518.25439 708.9154,522.26191 711.38172,525.88879 C 717.28607,534.57149 719.89899,542.40111 719.89192,551.38965 C 719.87839,568.60654 711.37398,582.93972 692.92263,596.84323 C 666.23116,616.95586 619.92168,628.40009 578.28885,625.17211 C 537.20271,621.98652 508.28119,611.75598 487.52447,593.06563 C 475.39656,582.14507 467.8975,568.86901 467.8975,558.31875 C 467.8975,556.41922 467.51574,555.10101 467.04914,555.38938 C 466.58255,555.67775 465.92563,560.76681 465.58934,566.6984 C 463.73346,599.43246 443.80121,634.57528 418.09,650.44515 C 411.29938,654.63655 411.22427,654.78876 410.59417,665.63405 C 410.14471,673.37034 406.20707,683.44962 401.40449,689.15716 C 398.12811,693.05092 398.23714,696.36152 401.78947,700.84671 C 403.38006,702.85498 406.04274,707.19474 407.70654,710.49061 C 417.15196,729.20132 412.7567,748.35557 394.97287,765.9831 C 378.12669,782.68122 353.18605,794.29931 321.82651,800.05684 C 312.88282,801.69888 305.39599,802.22486 287.3975,802.47559 C 274.7475,802.65181 263.0475,802.60151 261.3975,802.36381 z M 298.8975,800.51092 C 349.89987,798.38683 396.68037,774.23401 407.90651,744.22946 C 413.25325,729.93903 410.38148,713.93451 400.36688,702.21074 C 395.42893,696.43004 395.33778,695.00799 399.51174,688.86943 C 405.97011,679.37122 408.21556,673.36915 408.62757,664.50289 C 409.12482,653.80212 409.53109,652.23417 412.01037,651.44728 C 413.16989,651.07926 415.75634,649.30897 417.75804,647.51331 C 419.75975,645.71765 422.36934,643.94634 423.55714,643.57707 C 426.68935,642.60333 438.85828,629.43284 444.90451,620.4727 C 451.51639,610.67433 457.04421,598.2261 460.44216,585.4831 C 462.56837,577.50936 463.21572,572.39305 463.63696,560.2331 L 464.16523,544.9831 L 467.03136,544.9831 L 469.8975,544.9831 L 469.8975,553.82655 C 469.8975,564.4335 471.97453,571.28717 477.73356,579.68355 C 492.44371,601.13023 523.94889,616.68075 563.3975,621.96608 C 587.76047,625.23024 612.42591,624.20646 636.3975,618.93612 C 660.19036,613.70507 678.91067,605.43965 694.66108,593.21149 C 704.19841,585.80698 710.50672,578.10394 714.54025,568.93715 C 717.09409,563.13318 717.38101,561.37513 717.38882,551.4831 C 717.39656,541.67739 717.11139,539.87292 714.76233,534.86309 C 713.31299,531.77208 710.56727,527.49708 708.66073,525.36309 C 703.42392,519.50153 703.24044,517.16271 707.52843,510.92909 C 714.91866,500.18558 716.36238,495.70689 716.37573,483.4831 C 716.38695,473.20334 716.18309,472.0575 713.26226,465.9831 C 702.70845,444.03452 674.9899,426.78778 637.3975,418.77932 C 625.04878,416.14863 620.78392,415.73386 601.23893,415.26281 C 583.50679,414.83546 576.71491,415.06822 567.23893,416.42801 C 529.35661,421.86406 501.75562,433.89579 483.61876,452.87942 C 475.23885,461.65058 470.79841,469.72593 468.85257,479.7331 C 466.75643,490.51324 470.563,503.68004 478.89979,514.48606 C 483.14997,519.99509 483.2873,522.04978 479.7454,527.13747 C 478.72905,528.59737 477.8975,530.26753 477.8975,530.84893 C 477.8975,531.94219 473.37502,533.35563 466.36153,534.45432 L 462.32556,535.08658 L 458.51517,523.78484 C 453.43901,508.7288 439.82531,485.72196 437.41731,488.12995 C 437.0623,488.48497 437.25454,491.43738 437.84451,494.69088 C 440.32997,508.39735 434.85569,519.42953 419.8956,530.86288 C 415.49116,534.229 411.61171,536.9831 411.27459,536.9831 C 410.93748,536.9831 406.77722,538.72496 402.02958,540.8539 C 355.15355,561.87409 287.47495,551.2997 266.09069,519.61424 C 261.98957,513.53755 260.67347,507.68133 261.18094,497.76745 C 261.51624,491.21679 262.10408,488.50544 263.66019,486.33201 C 266.12067,482.89546 279.22729,470.233 283.35774,467.30199 C 286.07062,465.3769 286.21685,464.97941 285.10774,462.54518 C 283.21418,458.38926 283.60961,456.72564 287.97089,450.49971 C 302.04206,430.41245 299.01235,407.98437 279.71104,389.35437 C 265.28902,375.43395 240.27228,364.06871 212.70727,358.91418 C 198.25554,356.21177 165.62442,355.15512 151.22708,356.92335 C 129.0721,359.64435 111.021,364.58841 94.07085,372.57802 C 79.98088,379.21945 72.21921,384.70858 63.07922,394.4956 C 51.04975,407.37663 46.66342,419.32036 48.76732,433.46601 C 50.00713,441.80193 52.64569,447.7122 58.75172,455.83076 C 63.21645,461.76706 63.1849,463.1176 58.43608,469.34363 C 54.8852,473.99908 51.21882,482.56729 49.81558,489.48949 C 45.37157,511.41173 63.10843,535.07733 95.1076,549.92091 C 103.25068,553.69827 123.06631,559.78908 133.8975,561.84393 C 146.47351,564.22979 162.64788,565.26242 177.81509,564.6478 C 196.55213,563.88851 209.57756,561.99645 224.68884,557.83897 C 230.89907,556.13038 236.25265,555.00492 236.58568,555.33794 C 236.9187,555.67097 237.55466,560.25138 237.99891,565.51664 C 238.44316,570.78189 239.25841,576.52831 239.81058,578.28646 C 242.25889,586.08208 243.94419,595.33641 243.07401,596.20659 C 242.5671,596.7135 238.15751,598.17466 233.27493,599.45362 C 208.53051,605.93522 192.36748,614.59901 177.19445,629.51416 C 170.68276,635.91518 168.20852,639.21751 165.19445,645.53044 C 161.54148,653.18153 161.39783,653.88127 161.40632,663.9831 C 161.41414,673.28765 161.72276,675.14174 164.11705,680.26817 C 165.60311,683.44996 168.66013,688.67801 170.91045,691.88605 C 174.15336,696.50915 174.86442,698.26671 174.33893,700.36043 C 173.97429,701.81329 173.28675,703.24253 172.81108,703.53651 C 171.03627,704.6334 164.65892,717.19957 163.31489,722.24815 C 154.37045,755.84605 190.13683,788.37775 246.75865,798.14536 C 260.47517,800.51154 273.24109,801.69442 280.8975,801.30863 C 283.9225,801.15621 292.0225,800.79724 298.8975,800.51092 z M 289.70606,732.45833 C 289.35609,732.10835 282.88227,731.83463 275.3198,731.85006 C 267.35205,731.86632 260.72347,731.42514 259.55717,730.80096 C 258.45019,730.20852 253.46141,729.39864 248.47099,729.00121 C 241.67939,728.46034 237.00834,727.36373 229.8975,724.64075 C 213.50407,718.36317 196.95979,709.56049 190.3975,703.62408 L 184.3975,698.19633 L 186.8975,695.49344 C 194.4612,687.31589 214.1799,676.21347 230.28688,671.06347 C 250.16398,664.70802 291.02162,659.77388 294.55046,663.30273 C 295.06883,663.8211 290.56378,675.74311 287.78013,681.21953 C 284.28878,688.08823 292.04781,692.07191 296.0843,685.4831 C 297.09514,683.8331 299.9848,678.28991 302.50576,673.16491 C 305.02673,668.0399 307.62832,663.63989 308.28708,663.3871 C 308.94583,663.13431 314.19016,664.01782 319.94115,665.35046 C 325.69214,666.68309 332.52989,668.07241 335.13614,668.43784 C 347.06183,670.10993 364.75685,677.83613 376.37651,686.44467 C 388.17497,695.18566 388.18315,695.40687 377.02072,703.85741 C 365.23672,712.77851 343.98947,723.17996 333.8606,724.98617 C 331.36531,725.43114 325.74031,726.70007 321.3606,727.80602 C 305.99408,731.68634 291.12011,733.87238 289.70606,732.45833 z M 321.8975,725.1192 C 337.91615,721.73714 348.94217,718.02034 360.65224,712.05521 C 369.74188,707.42493 382.23528,698.21033 382.6972,695.7958 C 383.12855,693.54107 373.60501,686.11468 363.57734,680.88627 C 354.0615,675.92473 339.8009,670.9859 334.95991,670.9753 C 333.00059,670.97101 327.7975,670.03119 323.3975,668.88682 C 318.9975,667.74244 313.79592,666.58188 311.83844,666.30779 L 308.27938,665.80945 L 302.56791,677.88237 C 298.07708,687.3751 296.34827,690.08284 294.47868,690.55208 C 290.56967,691.53318 287.71646,690.64216 285.58321,687.77413 L 283.56827,685.06517 L 287.74791,675.77413 C 290.04672,670.66407 291.92079,666.0869 291.91253,665.60265 C 291.88695,664.10406 266.08349,665.65928 252.8975,667.95416 C 237.68498,670.60173 222.58856,675.48698 211.04125,681.49898 C 201.26533,686.58873 188.56615,695.7496 188.12726,698.02856 C 187.72475,700.11861 199.57763,708.87195 209.3975,713.73662 C 231.5235,724.69762 254.22972,729.0593 286.3975,728.52768 C 305.2051,728.21686 308.9113,727.86101 321.8975,725.1192 z M 577.8975,554.44576 C 577.0725,554.27782 572.1225,553.6108 566.8975,552.9635 C 546.83158,550.4776 515.39006,540.15954 518.47415,537.07256 C 518.79806,536.74836 531.28831,534.4581 546.23028,531.9831 C 572.48134,527.63485 573.40873,527.40379 573.73038,525.13139 C 574.39298,520.45029 573.08542,517.9831 569.94192,517.9831 C 566.59004,517.9831 507.09822,527.58511 504.66498,528.51883 C 503.77882,528.85888 502.00612,528.59747 500.72564,527.93792 C 497.49522,526.27398 492.8975,521.85398 492.8975,520.41237 C 492.8975,518.80536 499.18523,513.2204 506.869,508.00245 C 523.47301,496.72689 547.74867,488.82551 574.68502,485.92931 C 588.67712,484.42488 618.12155,485.20472 629.86837,487.39085 C 654.48704,491.97247 677.35908,501.78703 689.17563,512.84003 L 693.97457,517.32887 L 689.68603,521.78141 C 681.36499,530.42067 667.38112,538.10819 644.02416,546.88364 C 631.81183,551.47194 608.92268,555.01386 592.43214,554.8671 C 585.26309,554.8033 578.7225,554.61369 577.8975,554.44576 z M 603.36775,550.93395 C 618.90609,549.8771 632.57505,547.48342 645.72893,543.51575 C 666.46423,537.26127 692.41447,521.78106 690.36541,516.88856 C 689.18082,514.06014 680.18889,507.89247 669.42884,502.52793 C 650.75715,493.21896 629.78274,488.30686 604.3975,487.29793 C 572.81334,486.04262 544.87243,491.28949 520.3975,503.07181 C 510.14035,508.00964 497.60826,516.68852 496.47648,519.63788 C 495.46568,522.27198 499.6505,525.9831 503.63162,525.9831 C 505.49364,525.9831 520.46329,523.7331 536.8975,520.9831 C 553.33171,518.2331 568.12928,515.9831 569.78099,515.9831 C 571.75069,515.9831 573.31977,516.74789 574.3408,518.20561 C 576.20781,520.87114 576.39559,527.33188 574.6475,528.75794 C 573.96,529.31879 563.0475,531.42536 550.3975,533.4392 C 525.09561,537.46719 523.64848,537.77116 524.3523,538.90996 C 525.14705,540.1959 538.78847,544.80426 547.8975,546.86402 C 555.36093,548.55167 568.92077,550.36132 581.3975,551.3348 C 583.5975,551.50645 586.0725,551.71558 586.8975,551.79953 C 587.7225,551.88347 595.13411,551.49396 603.36775,550.93395 z M 156.3975,495.28901 C 145.21498,494.20984 135.05641,492.54391 129.67027,490.90596 C 126.22025,489.85679 121.92487,488.99494 120.125,488.99074 C 114.73251,488.97815 85.52139,474.19814 78.6475,468.00428 C 75.485,465.15465 72.8975,462.27545 72.8975,461.60606 C 72.8975,458.81322 83.56109,450.37785 94.8975,444.20309 C 105.02721,438.6856 113.84264,435.48467 129.8975,431.49444 C 146.67735,427.32402 157.58625,425.98953 174.92736,425.98592 C 211.53043,425.9783 244.16681,434.8771 264.54628,450.42187 C 273.9945,457.62865 274.17205,458.09159 269.37593,463.0146 C 258.40956,474.27111 227.63627,489.13932 225.73083,484.10185 C 225.28107,482.9128 191.23213,463.9831 189.54313,463.9831 C 186.94792,463.9831 184.41905,468.06356 184.77902,471.67023 C 184.84418,472.32316 190.69018,476.04938 197.77012,479.95074 C 210.36057,486.88862 214.90259,490.24389 213.16101,491.32024 C 212.68428,491.61487 205.44491,492.80222 197.07352,493.95878 C 183.40948,495.84656 167.54947,496.36523 156.3975,495.28901 z M 192.8975,491.15474 C 200.8725,490.23534 207.39195,489.0331 207.38517,488.4831 C 207.37839,487.9331 201.86589,484.40201 195.13517,480.63623 C 183.17429,473.94422 182.8975,473.71136 182.8975,470.34078 C 182.8975,466.59235 186.51234,461.9831 189.45208,461.9831 C 190.35709,461.9831 199.53664,466.7081 209.85107,472.4831 C 220.16549,478.2581 229.47724,482.9831 230.54384,482.9831 C 233.71048,482.9831 255.86092,471.46462 263.1475,466.02882 C 267.15909,463.03617 269.8975,460.25576 269.8975,459.1753 C 269.8975,456.5729 265.61201,452.82 256.14183,447.12916 C 231.93968,432.58555 192.04879,425.38909 155.75345,429.01872 C 143.74371,430.21973 123.09973,434.95934 111.47692,439.18408 C 95.81565,444.87674 75.8975,457.64949 75.8975,461.99979 C 75.8975,465.92826 93.35182,476.85621 108.67552,482.52173 C 120.49221,486.89064 141.37079,491.08849 155.3975,491.91568 C 174.46303,493.04002 176.989,492.98876 192.8975,491.15474 z M 467.8975,549.4831 C 467.8975,548.6581 467.4475,547.9831 466.8975,547.9831 C 466.3475,547.9831 465.8975,548.6581 465.8975,549.4831 C 465.8975,550.3081 466.3475,550.9831 466.8975,550.9831 C 467.4475,550.9831 467.8975,550.3081 467.8975,549.4831 z M 339.21324,521.86606 C 345.20878,518.79991 346.86992,510.86461 342.44295,506.43765 C 337.30846,501.30315 326.23961,504.49958 324.44901,511.63389 C 322.54215,519.23144 331.8081,525.65309 339.21324,521.86606 z "
         id="path4386" />
      <path
         id="path4388"
         d="M 175.40724,357.80584 C 141.80762,357.71362 116.55855,363.1496 90.84474,376.02459 C 72.36295,385.27849 60.02499,396.95628 53.06349,411.80584 C 50.74077,416.76045 50.40724,418.73294 50.40724,427.52459 C 50.40724,437.14344 50.56459,437.91178 54.18849,445.24334 C 57.0184,450.96856 59.9167,454.83212 65.65724,460.46209 C 74.47633,469.1113 77.37282,470.51857 70.34474,462.74334 C 67.73471,459.85584 64.49065,455.10433 63.15724,452.21209 C 60.84717,447.20148 60.77914,446.47777 61.65724,436.55584 C 62.78997,423.75658 65.49956,417.61696 74.06349,408.46209 C 80.61866,401.45459 87.79514,396.33185 98.25099,391.18084 C 107.58605,386.58198 119.07159,382.75144 120.18849,383.86834 C 120.682,384.36185 121.32918,393.92089 121.62599,405.11834 C 121.92279,416.3158 122.58793,426.00871 123.09474,426.64959 C 123.7375,427.46239 124.95785,427.54219 127.18849,426.89959 C 142.79546,422.40365 176.276,420.68979 196.59474,423.36834 C 225.99106,427.24356 253.14684,437.75082 268.28224,451.08709 L 273.18849,455.39959 L 275.93849,452.11834 C 277.45313,450.30405 279.33621,446.48858 280.12599,443.64959 C 281.89809,437.27947 284.57275,436.43719 284.09474,442.39959 C 283.68031,447.56889 281.17187,452.29624 274.71974,460.05584 C 270.52738,465.09775 270.04655,465.9938 272.43849,464.30584 C 279.23671,459.50841 289.08285,447.23635 292.37599,439.46209 C 295.03487,433.18517 295.46698,422.42955 293.40724,414.02459 C 288.77321,395.11501 266.55779,376.83344 235.56349,366.46209 C 218.07645,360.61056 198.98865,357.87056 175.40724,357.80584 z M 596.37599,416.24334 C 574.61804,416.15407 552.48188,419.41221 531.90724,426.14959 C 490.94171,439.56417 465.41577,467.33443 470.68849,492.74334 C 472.78745,502.85813 478.00423,511.88475 486.37599,519.83709 C 490.51115,523.76509 494.16618,526.99335 494.46974,526.99334 C 494.7733,526.99334 492.92011,524.42901 490.37599,521.30584 C 481.84859,510.83755 480.60526,506.93492 481.87599,494.61834 C 483.84793,475.50544 495.24763,461.66746 518.40724,450.21209 C 528.39167,445.27352 539.77447,441.45434 540.96974,442.64959 C 541.45932,443.13917 541.97696,452.99056 542.12599,464.52459 L 542.40724,485.49334 L 545.40724,485.43084 C 547.05724,485.3955 552.90724,484.48876 558.40724,483.43084 C 572.57449,480.70574 610.83386,480.67583 625.40724,483.36834 C 651.59042,488.20583 673.35016,497.30159 688.50099,509.77459 L 694.09474,514.36834 L 696.00099,511.93084 C 697.05137,510.58315 698.84982,506.45585 700.00099,502.74334 C 701.39226,498.25652 702.60722,495.99335 703.62599,495.99334 C 704.83961,495.99334 705.04676,496.87803 704.65724,500.24334 C 703.99664,505.95085 700.56783,512.95435 695.71974,518.46209 C 693.52487,520.9556 691.92663,522.99335 692.18849,522.99334 C 693.49596,522.99334 702.16933,514.91636 705.37599,510.71209 C 716.09849,496.65387 718.14492,480.62171 711.09474,465.55584 C 706.94871,456.69598 694.42357,444.24851 683.00099,437.58709 C 659.12668,423.66411 628.17607,416.37381 596.37599,416.24334 z M 63.53224,465.71209 L 61.15724,468.58709 C 55.24699,475.7815 50.92829,487.56399 50.90724,496.55584 C 50.87158,511.78516 62.07828,528.29938 80.46974,540.14959 C 97.21249,550.93748 117.95083,557.7274 148.40724,562.36834 C 154.68284,563.32462 195.68347,562.06294 204.40724,560.64959 C 214.31282,559.04478 232.76284,554.27251 234.50099,552.86834 C 235.10782,552.37811 235.87421,548.73045 236.21974,544.74334 C 236.86304,537.3203 240.32878,523.55434 243.28224,516.58709 C 244.19235,514.44014 244.69666,512.43901 244.40724,512.14959 C 244.11782,511.86017 240.60629,512.38175 236.62599,513.30584 C 223.90136,516.26001 213.82735,517.25445 196.40724,517.27459 C 177.58295,517.29636 165.37932,516.06239 147.40724,512.33709 C 112.94122,505.1929 82.67608,489.79772 68.78224,472.33709 L 63.53224,465.71209 z M 189.56349,465.99334 C 188.69041,465.99334 187.46779,466.92294 186.84474,468.08709 C 185.31705,470.94161 185.92734,471.46544 200.90724,479.89959 C 212.05802,486.17781 213.83899,486.87134 217.40724,486.39959 C 222.61126,485.71159 223.67988,484.53852 220.75099,482.71209 C 212.67085,477.67336 190.8875,465.99335 189.56349,465.99334 z M 333.87599,494.96209 C 321.05557,494.96209 310.62599,503.42049 310.62599,513.83709 C 310.62599,524.25369 321.05557,532.68085 333.87599,532.68084 C 346.69642,532.68084 357.09474,524.25369 357.09474,513.83709 C 357.09474,503.42049 346.69642,494.96208 333.87599,494.96209 z M 441.84474,494.99334 C 441.49209,494.99334 441.15643,497.93524 441.09474,501.55584 C 441.01442,506.26951 440.2558,509.68581 438.46974,513.58709 C 435.7329,519.56514 426.85592,529.52494 420.06349,534.21209 C 417.09213,536.2625 415.89239,537.71293 416.25099,538.83709 C 416.53895,539.7398 418.59204,544.89465 420.81349,550.27459 C 424.92605,560.23447 430.36338,579.65353 431.43849,588.24334 C 431.76548,590.85584 432.37697,592.99335 432.81349,592.99334 C 433.25,592.99334 435.82833,590.63085 438.53224,587.74334 C 453.23385,572.04351 462.11939,552.01354 460.50099,538.24334 C 459.77921,532.10212 455.06494,517.79987 451.34474,510.49334 C 447.67356,503.28309 442.59103,494.99335 441.84474,494.99334 z M 257.53224,498.14959 C 257.30458,498.16846 256.92727,498.6429 256.25099,499.49334 C 253.28695,503.22071 245.89745,519.9173 243.37599,528.61834 C 240.99358,536.83952 238.33424,558.28107 239.46974,560.11834 C 240.42494,561.6639 240.72128,561.05624 242.31349,554.05584 C 244.19173,545.79785 251.3714,529.97835 256.90724,521.86834 L 260.87599,516.02459 L 259.40724,509.74334 C 258.59404,506.29424 257.90161,502.14335 257.87599,500.49334 C 257.85052,498.8532 257.82495,498.12533 257.53224,498.14959 z M 570.21974,519.64959 C 565.32458,519.688 509.60298,528.98652 508.53224,529.99334 C 508.05573,530.44141 509.40572,531.73993 511.53224,532.86834 C 513.65876,533.99675 516.53224,534.7261 517.90724,534.49334 C 519.28224,534.26058 531.88314,532.20657 545.90724,529.93084 C 559.93133,527.65513 571.68626,525.33441 572.03224,524.77459 C 572.89141,523.38442 571.95447,520.2266 570.53224,519.68084 C 570.48367,519.6622 570.37765,519.64835 570.21974,519.64959 z M 263.09474,519.86834 L 260.59474,523.18084 C 255.16321,530.34285 248.54995,545.27013 245.84474,556.49334 C 243.20999,567.42421 243.3644,590.79426 246.09474,593.52459 C 246.30173,593.73158 250.73489,593.17113 255.93849,592.27459 C 262.55203,591.13511 271.87822,590.60861 286.90724,590.55584 C 312.10206,590.4674 323.58423,591.95409 343.43849,597.83709 C 359.43201,602.57612 370.69769,607.60089 382.31349,615.14959 L 391.25099,620.93084 L 400.81349,615.93084 C 406.08155,613.17043 414.39761,607.91711 419.28224,604.27459 L 428.15724,597.64959 L 427.59474,591.05584 C 426.52099,578.24807 416.47842,545.23741 412.37599,541.05584 C 411.16745,539.82398 409.89799,540.12986 403.06349,543.33709 C 398.71281,545.37874 389.81525,548.44841 383.28224,550.14959 C 372.66998,552.91301 369.43992,553.27817 352.90724,553.71209 C 327.68857,554.37396 311.70812,551.76821 293.78224,543.99334 C 281.01964,538.4579 275.54378,534.41686 266.75099,524.11834 L 263.09474,519.86834 z M 484.34474,525.43084 C 483.9777,525.52048 483.52768,525.90654 482.84474,526.52459 C 480.55584,528.59602 481.151,529.99335 484.34474,529.99334 C 486.88443,529.99334 488.90507,533.92914 488.87599,538.86834 C 488.85149,543.02874 487.73676,543.86083 480.09474,545.30584 C 476.1259,546.0563 472.53008,547.02626 472.12599,547.43084 C 470.89028,548.66808 471.65054,561.59926 473.28224,567.21209 C 477.70393,582.42214 497.30717,599.80966 520.90724,609.43084 C 532.31179,614.0802 550.88638,618.76145 564.37599,620.39959 C 579.61039,622.24962 604.44605,622.29507 618.09474,620.49334 C 670.45486,613.58138 708.76726,589.66474 715.78224,559.49334 C 717.41404,552.47494 715.84535,541.37919 712.21974,534.18084 C 708.70347,527.19955 706.90724,526.35577 706.90724,531.71209 C 706.90724,539.30554 704.05109,545.00007 696.46974,552.58709 C 685.19519,563.87009 668.56176,570.87208 644.59474,574.43084 C 631.40416,576.38945 601.19574,576.46246 586.87599,574.55584 C 556.80949,570.5526 528.03467,560.93663 508.75099,548.46209 C 500.57928,543.17584 488.47832,532.00079 486.21974,527.64959 C 485.33871,525.95226 484.95648,525.28143 484.34474,525.43084 z M 480.68849,534.05584 C 479.03817,534.1172 476.60305,534.47243 472.96974,535.08709 C 465.2475,536.39349 464.42039,536.96569 465.28224,540.39959 C 465.63745,541.81486 466.25522,542.99408 466.65724,542.99334 C 468.47377,542.98995 484.23356,539.9795 484.65724,539.55584 C 484.91825,539.29482 484.85254,537.92521 484.50099,536.52459 C 484.04041,534.6895 483.43902,533.95358 480.68849,534.05584 z M 288.40724,594.55584 C 264.88191,594.5135 258.414,595.21953 238.40724,599.99334 C 213.83742,605.85595 199.63611,612.53409 183.31349,625.93084 C 163.6827,642.04278 157.40549,662.52112 166.40724,681.18084 C 169.74388,688.09737 176.48365,696.58719 182.25099,701.14959 C 184.91288,703.25534 187.31816,704.99335 187.59474,704.99334 C 187.87132,704.99334 185.97752,702.63337 183.40724,699.77459 C 178.61456,694.44397 175.27884,688.85191 173.75099,683.52459 C 172.31744,678.52608 174.58482,664.33737 177.96974,657.05584 C 181.90737,648.58533 193.499,637.15928 204.31349,631.05584 C 213.12119,626.08498 229.21667,619.69595 231.75099,620.18084 C 233.20817,620.45964 233.47356,623.03526 233.96974,641.71209 C 234.27978,653.3824 234.77748,663.20734 235.09474,663.52459 C 235.412,663.84185 240.48133,663.1561 246.34474,662.02459 C 258.50364,659.67816 275.67214,658.00586 287.46974,657.99334 L 295.50099,657.99334 L 301.96974,644.74334 C 306.82997,634.74786 309.05029,631.16684 311.06349,630.21209 C 314.53904,628.56385 318.45695,630.23015 320.53224,634.24334 C 321.9611,637.00644 321.81322,637.57152 316.81349,648.14959 C 311.35813,659.69165 311.30651,660.92351 316.40724,660.96209 C 320.21884,660.99091 342.39965,666.90803 350.40724,670.02459 C 361.25658,674.24718 371.02311,679.77465 379.37599,686.46209 L 386.34474,692.05584 L 388.09474,689.77459 C 389.56335,687.87788 391.7138,682.94187 394.43849,675.14959 C 394.69488,674.41636 395.47004,674.00029 396.15724,674.24334 C 399.66442,675.48392 394.77775,688.45651 387.81349,696.36834 C 382.9097,701.93933 383.61751,702.36963 389.28224,697.27459 C 401.89822,685.9273 408.844,671.09736 407.62599,658.11834 C 405.34643,633.82713 380.76025,612.59841 341.96974,601.43084 C 322.39139,595.79433 313.11473,594.60032 288.40724,594.55584 z M 312.81349,634.05584 C 311.8116,634.05008 310.92523,634.39399 310.59474,635.18084 C 310.29348,635.8981 305.73875,645.69098 300.46974,656.93084 C 295.20074,668.1707 290.90724,677.66098 290.90724,678.02459 C 290.90724,678.38819 291.91974,679.14865 293.15724,679.74334 C 294.39474,680.33802 295.83156,680.72921 296.37599,680.58709 C 297.93516,680.18012 317.01368,638.79586 316.68849,636.52459 C 316.47668,635.0452 314.4833,634.06545 312.81349,634.05584 z M 290.90724,683.99334 C 288.915,683.99334 288.2957,685.03802 289.56349,686.30584 C 290.78142,687.52377 292.90724,687.01576 292.90724,685.49334 C 292.90724,684.66001 292.01835,683.99335 290.90724,683.99334 z M 176.12599,702.49334 L 173.96974,704.99334 C 172.77318,706.36834 170.12481,710.86835 168.09474,714.99334 C 164.54706,722.20206 164.40724,722.88218 164.40724,733.02459 C 164.40724,743.05766 164.56095,743.92908 167.81349,750.33709 C 176.54983,767.54907 197.4373,782.57705 224.37599,791.08709 C 233.07617,793.83551 257.6063,798.55766 266.90724,799.27459 C 297.91388,801.66467 333.62947,796.28579 359.06349,785.39959 C 395.18754,769.93785 414.44975,743.65625 407.40724,719.43084 C 405.4197,712.59395 401.13257,704.74059 399.81349,705.55584 C 399.31582,705.86342 398.90724,708.22755 398.90724,710.83709 C 398.90724,727.66156 377.09505,744.11043 346.34474,750.46209 C 318.64184,756.18428 280.83538,754.63524 249.53224,746.49334 C 217.98156,738.28706 193.90349,724.65987 179.75099,706.99334 L 176.12599,702.49334 z "
         style="fill:white" />
      <path
         style="fill:url(#radialGradient4433);fill-opacity:1;stroke:black;stroke-width:1.77165353;stroke-linecap:round;stroke-linejoin:round;stroke-miterlimit:4;stroke-dasharray:none;stroke-opacity:1"
         d="M 266.8975,800.86944 C 199.21097,795.16532 153.20012,760.24216 163.31489,722.24815 C 164.65892,717.19957 171.03627,704.6334 172.81108,703.53651 C 173.28675,703.24253 173.97429,701.81329 174.33893,700.36043 C 174.86442,698.26671 174.15336,696.50915 170.91045,691.88605 C 168.66013,688.67801 165.60311,683.44996 164.11705,680.26817 C 161.72276,675.14174 161.41414,673.28765 161.40632,663.9831 C 161.39783,653.88127 161.54148,653.18153 165.19445,645.53044 C 168.20852,639.21751 170.68276,635.91518 177.19445,629.51416 C 192.36748,614.59901 208.53051,605.93522 233.27493,599.45362 C 238.15751,598.17466 242.5671,596.7135 243.07401,596.20659 C 243.94419,595.33641 242.25889,586.08208 239.81058,578.28646 C 239.25841,576.52831 238.44316,570.78189 237.99891,565.51664 C 237.55466,560.25138 236.9187,555.67097 236.58568,555.33794 C 236.25265,555.00492 230.89907,556.13038 224.68884,557.83897 C 209.57756,561.99645 196.55213,563.88851 177.81509,564.6478 C 154.64172,565.58686 138.64782,563.68457 115.8975,557.28343 C 93.55225,550.99627 76.69615,541.72804 64.62145,529.08959 C 52.36243,516.25822 47.1923,502.43008 49.81558,489.48949 C 51.21882,482.56729 54.8852,473.99908 58.43608,469.34363 C 63.1849,463.1176 63.21645,461.76706 58.75172,455.83076 C 52.64569,447.7122 50.00713,441.80193 48.76732,433.46601 C 46.66342,419.32036 51.04975,407.37663 63.07922,394.4956 C 72.21921,384.70858 79.98088,379.21945 94.07085,372.57802 C 111.021,364.58841 129.0721,359.64435 151.22708,356.92335 C 165.62442,355.15512 198.25554,356.21177 212.70727,358.91418 C 240.27228,364.06871 265.28902,375.43395 279.71104,389.35437 C 299.01235,407.98437 302.04206,430.41245 287.97089,450.49971 C 283.60961,456.72564 283.21418,458.38926 285.10774,462.54518 C 286.21685,464.97941 286.07062,465.3769 283.35774,467.30199 C 279.22729,470.233 266.12067,482.89546 263.66019,486.33201 C 261.05384,489.97231 260.10984,504.09821 262.01757,510.91195 C 266.34025,526.35103 286.84898,541.37014 311.88717,547.43282 C 343.2248,555.02084 375.7265,552.64875 402.02958,540.8539 C 406.77722,538.72496 410.93748,536.9831 411.27459,536.9831 C 411.61171,536.9831 415.49116,534.229 419.8956,530.86288 C 427.17651,525.29839 432.6998,519.17813 435.78146,513.26001 C 438.07293,508.8594 438.96225,500.85484 437.84451,494.69088 C 437.25454,491.43738 437.0623,488.48497 437.41731,488.12995 C 439.82531,485.72196 453.43901,508.7288 458.51517,523.78484 L 462.32556,535.08658 L 466.36153,534.45432 C 473.37502,533.35563 477.8975,531.94219 477.8975,530.84893 C 477.8975,530.26753 478.72905,528.59737 479.7454,527.13747 C 483.2873,522.04978 483.14997,519.99509 478.89979,514.48606 C 470.563,503.68004 466.75643,490.51324 468.85257,479.7331 C 470.79841,469.72593 475.23885,461.65058 483.61876,452.87942 C 501.75562,433.89579 529.35661,421.86406 567.23893,416.42801 C 576.71491,415.06822 583.50679,414.83546 601.23893,415.26281 C 620.78392,415.73386 625.04878,416.14863 637.3975,418.77932 C 674.9899,426.78778 702.70845,444.03452 713.26226,465.9831 C 716.18309,472.0575 716.38695,473.20334 716.37573,483.4831 C 716.36238,495.70689 714.91866,500.18558 707.52843,510.92909 C 703.24044,517.16271 703.42392,519.50153 708.66073,525.36309 C 710.56727,527.49708 713.31299,531.77208 714.76233,534.86309 C 717.11139,539.87292 717.39656,541.67739 717.38882,551.4831 C 717.38101,561.37513 717.09409,563.13318 714.54025,568.93715 C 706.78858,586.55396 687.38318,601.96155 660.24494,612.04679 C 615.11115,628.81963 556.71813,627.45571 514.60942,608.6451 C 506.4855,605.01602 492.2966,595.65566 486.55447,590.13735 C 474.97872,579.01283 469.8975,567.93618 469.8975,553.82655 L 469.8975,544.9831 L 467.03136,544.9831 L 464.16523,544.9831 L 463.63696,560.2331 C 463.21572,572.39305 462.56837,577.50936 460.44216,585.4831 C 457.04421,598.2261 451.51639,610.67433 444.90451,620.4727 C 438.85828,629.43284 426.68935,642.60333 423.55714,643.57707 C 422.36934,643.94634 419.75975,645.71765 417.75804,647.51331 C 415.75634,649.30897 413.16989,651.07926 412.01037,651.44728 C 409.53109,652.23417 409.12482,653.80212 408.62757,664.50289 C 408.21556,673.36915 405.97011,679.37122 399.51174,688.86943 C 395.33778,695.00799 395.42893,696.43004 400.36688,702.21074 C 410.38148,713.93451 413.25325,729.93903 407.90651,744.22946 C 396.68037,774.23401 349.89987,798.38683 298.8975,800.51092 C 292.0225,800.79724 283.9225,801.15621 280.8975,801.30863 C 277.8725,801.46105 271.5725,801.26342 266.8975,800.86944 z M 300.8975,798.955 C 341.65444,795.37194 372.83607,783.26211 392.70326,763.30092 C 406.86047,749.07672 411.77964,734.40915 407.42113,719.41639 C 405.43359,712.5795 401.12143,704.72667 399.80235,705.5419 C 399.30468,705.84948 398.8975,708.23622 398.8975,710.84577 C 398.8975,724.60937 382.808,739.53293 360.03447,746.89256 C 343.31135,752.2969 324.5289,754.44801 300.8975,753.66536 C 247.59126,751.89992 201.48837,734.13702 179.7356,706.9831 L 176.13069,702.4831 L 173.95512,704.9831 C 172.75856,706.3581 170.1186,710.8581 168.08853,714.9831 C 164.54085,722.19182 164.3975,722.89292 164.3975,733.03532 C 164.3975,743.06839 164.5658,743.91913 167.81834,750.32714 C 176.55468,767.53912 197.42848,782.58932 224.36717,791.09937 C 233.06735,793.84779 257.59656,798.56987 266.8975,799.28681 C 276.73836,800.04537 289.9626,799.91631 300.8975,798.955 z M 308.3975,730.84027 C 311.1475,730.27739 316.9809,728.91198 321.3606,727.80602 C 325.74031,726.70007 331.36531,725.43114 333.8606,724.98617 C 343.98947,723.17996 365.23672,712.77851 377.02072,703.85741 C 388.18315,695.40687 388.17497,695.18566 376.37651,686.44467 C 364.75685,677.83613 347.06183,670.10993 335.13614,668.43784 C 332.52989,668.07241 325.69214,666.68309 319.94115,665.35046 C 314.19016,664.01782 308.94583,663.13431 308.28708,663.3871 C 307.62832,663.63989 305.02673,668.0399 302.50576,673.16491 C 299.9848,678.28991 297.09514,683.8331 296.0843,685.4831 C 292.04781,692.07191 284.28878,688.08823 287.78013,681.21953 C 290.56378,675.74311 295.06883,663.8211 294.55046,663.30273 C 291.02162,659.77388 250.16398,664.70802 230.28688,671.06347 C 214.1799,676.21347 194.4612,687.31589 186.8975,695.49344 L 184.3975,698.19633 L 190.3975,703.62408 C 196.95979,709.56049 213.50407,718.36317 229.8975,724.64075 C 237.00834,727.36373 241.67939,728.46034 248.47099,729.00121 C 253.46141,729.39864 258.45019,730.20852 259.55717,730.80096 C 260.72347,731.42514 267.35205,731.86632 275.3198,731.85006 C 282.88227,731.83463 289.35609,732.10835 289.70606,732.45833 C 290.46697,733.21924 301.39787,732.27298 308.3975,730.84027 z M 183.4096,699.78534 C 178.61692,694.45472 175.29349,688.85063 173.76564,683.52333 C 172.33209,678.52482 174.58703,664.33435 177.97195,657.05282 C 181.90958,648.58231 193.48443,637.14726 204.29892,631.04382 C 213.10662,626.07296 229.20768,619.70471 231.742,620.1896 C 233.19918,620.4684 233.46503,623.04826 233.96121,641.7251 C 234.27125,653.39541 234.78449,663.20343 235.10175,663.52069 C 235.41901,663.83795 240.47592,663.17173 246.33933,662.04021 C 258.49823,659.69378 275.65718,658.00418 287.45478,657.99165 L 295.51206,657.9831 L 301.95478,644.7331 C 306.81501,634.73762 309.053,631.17224 311.0662,630.2175 C 314.54175,628.56926 318.46149,630.23927 320.53678,634.25245 C 321.96564,637.01555 321.81459,637.57988 316.81486,648.15794 C 311.3595,659.7 311.32186,660.92922 316.42259,660.96779 C 320.23419,660.99661 342.38991,666.89283 350.3975,670.00942 C 361.24684,674.23201 371.01505,679.78197 379.36794,686.46942 L 386.33839,692.05006 L 388.10647,689.76658 C 389.57508,687.86987 391.7077,682.94224 394.43239,675.14994 C 394.68878,674.41671 395.46082,674.01567 396.14803,674.25875 C 399.65521,675.49933 394.76628,688.44241 387.80201,696.35425 C 382.89822,701.92524 383.61157,702.3714 389.2763,697.27634 C 426.77701,663.54678 405.08002,619.59252 341.95925,601.42039 C 322.3809,595.78388 313.10499,594.59397 288.3975,594.5495 C 264.87217,594.50716 258.40426,595.21016 238.3975,599.98397 C 213.82768,605.84658 199.62112,612.53754 183.2985,625.9343 C 159.59019,645.39286 155.87395,669.40249 173.10949,691.76282 C 176.78925,696.53672 186.03438,704.9831 187.57997,704.9831 C 187.85655,704.9831 185.97988,702.64411 183.4096,699.78534 z M 292.8975,685.4831 C 292.8975,684.64977 292.00861,683.9831 290.8975,683.9831 C 288.90526,683.9831 288.29638,685.04864 289.56417,686.31643 C 290.7821,687.53436 292.8975,687.00551 292.8975,685.4831 z M 307.17887,659.43903 C 312.56976,647.95275 316.84931,637.63873 316.68899,636.51899 C 316.35009,634.15197 311.48656,633.08075 310.60525,635.179 C 310.30399,635.89626 305.74651,645.67935 300.4775,656.91921 C 295.2085,668.15907 290.8975,677.6528 290.8975,678.01639 C 290.8975,678.91382 295.15511,680.9032 296.38738,680.58156 C 296.93181,680.43945 301.78798,670.92531 307.17887,659.43903 z M 618.09628,620.49125 C 670.4564,613.57929 708.76302,589.65449 715.778,559.4831 C 717.4098,552.4647 715.85588,541.38441 712.23028,534.18607 C 708.71401,527.20478 706.8975,526.36532 706.8975,531.72163 C 706.8975,539.31508 704.06473,544.98728 696.48339,552.5743 C 685.20884,563.8573 668.54717,570.87425 644.58015,574.43301 C 631.38957,576.39162 601.18768,576.4487 586.86794,574.54208 C 556.80144,570.53884 528.0419,560.93617 508.75823,548.46163 C 500.58652,543.17538 488.48592,531.99456 486.22734,527.64335 C 484.81769,524.92762 484.67016,524.87887 482.84899,526.527 C 480.56009,528.59843 481.16495,529.9831 484.35869,529.9831 C 486.89838,529.9831 488.91127,533.94312 488.88219,538.88232 C 488.85769,543.04272 487.72498,543.8709 480.08296,545.31591 C 476.11412,546.06637 472.53628,547.0114 472.13219,547.41598 C 470.89648,548.65322 471.64505,561.60289 473.27674,567.21571 C 477.69843,582.42576 497.30943,599.80389 520.90949,609.42508 C 532.31404,614.07444 550.87857,618.76328 564.36818,620.40142 C 579.60258,622.25145 604.44758,622.29299 618.09628,620.49125 z M 419.27864,604.2742 L 428.15977,597.65145 L 427.60695,591.05746 C 426.5332,578.24969 416.47573,545.23891 412.37331,541.05733 C 411.16477,539.82547 409.89871,540.13642 403.0642,543.34365 C 398.71352,545.3853 389.80869,548.44762 383.27568,550.14881 C 372.66342,552.91223 369.42534,553.29364 352.89266,553.72755 C 327.67399,554.38942 311.69372,551.75484 293.76784,543.97996 C 281.00524,538.44452 275.5398,534.42977 266.74701,524.13124 L 263.09652,519.85561 L 260.58344,523.16936 C 255.15191,530.33137 248.54502,545.25988 245.83981,556.4831 C 243.20506,567.41397 243.36862,590.78755 246.09896,593.51789 C 246.30595,593.72488 250.7328,593.16069 255.9364,592.26414 C 262.54994,591.12466 271.86848,590.61133 286.8975,590.55857 C 312.09232,590.47013 323.57982,591.94774 343.43408,597.83074 C 359.4276,602.56977 370.70341,607.58816 382.31921,615.13687 L 391.24091,620.93478 L 400.81921,615.91587 C 406.08727,613.15546 414.39401,607.91671 419.27864,604.2742 z M 438.52359,587.7331 C 445.88166,579.87542 450.52392,573.06403 454.82851,563.80958 C 461.91427,548.57586 462.35121,540.10953 456.87314,524.19211 C 453.0168,512.98688 443.74685,494.9831 441.83375,494.9831 C 441.4811,494.9831 441.14209,497.9454 441.08039,501.56599 C 441.00007,506.27966 440.25995,509.69594 438.47389,513.59721 C 435.73705,519.57526 426.85172,529.51978 420.0593,534.20694 C 417.08794,536.25735 415.88606,537.71766 416.24466,538.84182 C 416.53262,539.74453 418.58577,544.88488 420.80722,550.26483 C 424.91978,560.22471 430.35043,579.64328 431.42553,588.2331 C 431.75252,590.8456 432.3772,592.9831 432.81372,592.9831 C 433.25023,592.9831 435.81968,590.6206 438.52359,587.7331 z M 204.3975,560.65232 C 214.30308,559.04751 232.76267,554.27718 234.50082,552.873 C 235.10765,552.38277 235.88686,548.71949 236.23239,544.73239 C 236.87569,537.30935 240.31555,523.5468 243.26901,516.57956 C 244.17912,514.43261 244.68696,512.43922 244.39754,512.1498 C 244.10812,511.86038 240.61471,512.37964 236.63441,513.30372 C 223.90978,516.25789 213.81761,517.25366 196.3975,517.27379 C 177.57321,517.29556 165.36958,516.06727 147.3975,512.34197 C 112.93148,505.19778 82.68327,489.80791 68.78943,472.34728 L 63.51748,465.72193 L 61.15106,468.60252 C 55.24081,475.79693 50.93043,487.55975 50.90937,496.5516 C 50.87371,511.78092 62.07241,528.30188 80.46387,540.15209 C 97.20662,550.93998 117.94109,557.71782 148.3975,562.35876 C 154.6731,563.31504 195.67373,562.06566 204.3975,560.65232 z M 242.30933,554.07094 C 244.18757,545.81295 251.36039,529.97759 256.89623,521.86758 L 260.88413,516.0253 L 259.4056,509.7542 C 258.5924,506.3051 257.9061,502.1331 257.88048,500.4831 C 257.8352,497.5673 257.78926,497.53923 256.24347,499.4831 C 253.27943,503.21047 245.91213,519.90241 243.39067,528.60344 C 240.10204,539.9518 238.14418,560.9831 240.37636,560.9831 C 240.57482,560.9831 241.44465,557.87263 242.30933,554.07094 z M 620.5588,552.50635 C 647.27425,548.12207 677.07192,534.87792 689.68603,521.78141 L 693.97457,517.32887 L 689.17563,512.84003 C 677.35908,501.78703 654.48704,491.97247 629.86837,487.39085 C 618.12155,485.20472 588.67712,484.42488 574.68502,485.92931 C 547.74867,488.82551 523.47301,496.72689 506.869,508.00245 C 499.18523,513.2204 492.8975,518.80536 492.8975,520.41237 C 492.8975,521.85398 497.49522,526.27398 500.72564,527.93792 C 502.00612,528.59747 503.77882,528.85888 504.66498,528.51883 C 507.09822,527.58511 566.59004,517.9831 569.94192,517.9831 C 573.08542,517.9831 574.39298,520.45029 573.73038,525.13139 C 573.40873,527.40379 572.48134,527.63485 546.23028,531.9831 C 531.28831,534.4581 518.79806,536.74836 518.47415,537.07256 C 515.39006,540.15954 546.83158,550.4776 566.8975,552.9635 C 572.1225,553.6108 577.0725,554.27782 577.8975,554.44576 C 578.7225,554.61369 585.26309,554.8033 592.43214,554.8671 C 602.0275,554.95249 609.44892,554.32959 620.5588,552.50635 z M 475.79302,541.50288 C 480.41056,540.69026 484.4021,539.81183 484.66312,539.55082 C 484.92413,539.2898 484.85008,537.93028 484.49854,536.52967 C 483.76162,533.59352 482.66824,533.45749 472.97941,535.09659 C 465.25717,536.40299 464.42791,536.97597 465.28977,540.40988 C 466.05008,543.43922 465.25835,543.35683 475.79302,541.50288 z M 545.89585,529.93512 C 559.91994,527.65941 571.67729,525.33941 572.02328,524.77958 C 572.88245,523.38941 571.96106,520.22147 570.53882,519.6757 C 568.98455,519.07928 509.63639,528.96192 508.5311,530.00122 C 507.2227,531.23151 515.03511,534.98055 517.8975,534.49599 C 519.2725,534.26323 531.87176,532.21084 545.89585,529.93512 z M 490.38169,521.30458 C 481.85429,510.83629 480.61255,506.93742 481.88329,494.62083 C 483.85523,475.50793 495.23789,461.66285 518.3975,450.20748 C 528.38193,445.26891 539.77017,441.45577 540.96543,442.65103 C 541.45501,443.14061 541.97751,452.97811 542.12654,464.51214 L 542.3975,485.4831 L 545.3975,485.41884 C 547.0475,485.3835 552.8975,484.489 558.3975,483.43107 C 572.56475,480.70597 610.82412,480.66259 625.3975,483.3551 C 651.58068,488.19259 673.3432,497.30663 688.49403,509.77962 L 694.08666,514.38378 L 695.99643,511.93344 C 697.04681,510.58575 698.84808,506.4456 699.99926,502.7331 C 701.39053,498.24628 702.60618,495.9831 703.62495,495.9831 C 704.83857,495.9831 705.05521,496.86778 704.6657,500.2331 C 704.0051,505.94061 700.5663,512.94172 695.7182,518.44945 C 693.52333,520.94296 691.94177,522.9831 692.20363,522.9831 C 693.5111,522.9831 702.18331,514.90623 705.38998,510.70197 C 716.11248,496.64375 718.13183,480.62882 711.08166,465.56294 C 704.88664,452.3245 687.40653,438.08519 666.50537,429.25106 C 641.42059,418.64868 604.25077,413.90021 573.8975,417.42036 C 534.39937,422.00105 505.2224,433.67669 486.33049,452.46173 C 477.0372,461.70244 472.41609,469.90816 470.62857,480.34364 C 468.32067,493.81703 474.01476,508.09072 486.38505,519.84128 C 490.52021,523.76928 494.1519,526.9831 494.45546,526.9831 C 494.75902,526.9831 492.92582,524.42776 490.38169,521.30458 z M 197.07352,493.95878 C 205.44491,492.80222 212.68428,491.61487 213.16101,491.32024 C 214.90259,490.24389 210.36057,486.88862 197.77012,479.95074 C 190.69018,476.04938 184.84418,472.32316 184.77902,471.67023 C 184.41905,468.06356 186.94792,463.9831 189.54313,463.9831 C 191.23213,463.9831 225.28107,482.9128 225.73083,484.10185 C 227.63627,489.13932 258.40956,474.27111 269.37593,463.0146 C 274.17205,458.09159 273.9945,457.62865 264.54628,450.42187 C 244.16681,434.8771 211.53043,425.9783 174.92736,425.98592 C 157.58625,425.98953 146.67735,427.32402 129.8975,431.49444 C 113.84264,435.48467 105.02721,438.6856 94.8975,444.20309 C 83.56109,450.37785 72.8975,458.81322 72.8975,461.60606 C 72.8975,462.27545 75.485,465.15465 78.6475,468.00428 C 85.52139,474.19814 114.73251,488.97815 120.125,488.99074 C 121.92487,488.99494 126.22025,489.85679 129.67027,490.90596 C 135.05641,492.54391 145.21498,494.20984 156.3975,495.28901 C 167.54947,496.36523 183.40948,495.84656 197.07352,493.95878 z M 222.2544,485.02501 C 223.26391,484.0169 222.57225,483.5652 204.77009,473.60645 C 197.27502,469.41361 190.42835,465.9831 189.55528,465.9831 C 188.6822,465.9831 187.45811,466.9356 186.83506,468.09976 C 185.30737,470.95428 185.9176,471.46636 200.8975,479.9005 C 212.04828,486.17872 213.82925,486.88129 217.3975,486.40955 C 219.5975,486.1187 221.78311,485.49566 222.2544,485.02501 z M 70.33732,462.7331 C 67.72729,459.8456 64.50083,455.11672 63.16741,452.22449 C 60.85734,447.21388 60.78646,446.47478 61.66456,436.55286 C 62.79729,423.7536 65.51274,417.60559 74.07667,408.45072 C 80.63184,401.44322 87.79078,396.32642 98.24662,391.17541 C 107.58168,386.57655 119.06529,382.75089 120.18219,383.86779 C 120.6757,384.3613 121.32232,393.92664 121.61913,405.12409 C 121.91593,416.32155 122.57343,426.00746 123.08024,426.64835 C 123.723,427.46115 124.96897,427.53496 127.19961,426.89237 C 142.80658,422.39643 176.27376,420.7034 196.5925,423.38196 C 225.98882,427.25718 253.15469,437.7568 268.29009,451.09308 L 273.18267,455.40409 L 275.93655,452.10539 C 277.45119,450.2911 279.33661,446.48388 280.12639,443.64489 C 281.89849,437.27477 284.56164,436.43573 284.08363,442.39814 C 283.6692,447.56744 281.16199,452.28821 274.70986,460.04781 C 270.5175,465.08972 270.03652,465.98574 272.42846,464.29777 C 279.22668,459.50034 289.07227,447.23482 292.36541,439.46057 C 295.02429,433.18365 295.46374,422.4146 293.404,414.00963 C 288.76997,395.10005 266.54925,376.83809 235.55495,366.46675 C 218.06791,360.61522 198.97891,357.8653 175.3975,357.80057 C 141.79788,357.70835 116.55004,363.14957 90.83622,376.02456 C 72.35443,385.27846 60.01492,396.96818 53.05342,411.81775 C 50.7307,416.77236 50.3975,418.74426 50.3975,427.53592 C 50.3975,437.15477 50.561,437.91953 54.18491,445.25108 C 57.01482,450.9763 59.91461,454.8183 65.65515,460.44826 C 74.47424,469.09747 77.3654,470.50832 70.33732,462.7331 z "
         id="path4384" />
    </g>
    <image
       y="267.32489"
       x="169.60448"
       id="image10110"
       height="360"
       width="480"
       sodipodi:absref="C:\Projets\CMD\Communication\Images\Teeshirt4.png"
       xlink:href="Teeshirt4.png" />
    <g
       id="g11162"
       transform="translate(202.9405,-167.238)">
      <path
         d="M 74.667827,779.54754 C 51.662467,779.93524 27.420147,786.3219 10.386577,802.29754 C 0.46504651,811.61914 -3.7338735,827.65062 4.0115765,839.61004 C 5.0159365,842.46066 10.424927,845.41206 6.8865765,848.39129 C -2.1044935,859.55272 -0.98628349,876.8326 9.1990765,886.82879 C 25.952617,904.56465 51.852657,909.92078 75.449077,910.45379 C 88.360367,910.56531 101.24592,908.83945 113.60533,905.14129 C 114.05436,911.67231 114.79627,918.24292 116.85533,924.48504 C 98.162827,929.20886 77.576537,938.21393 69.449077,956.92254 C 65.075987,967.3569 68.548107,979.32156 75.699077,987.54754 C 73.644777,992.63908 69.352657,997.20511 68.667827,1003.0476 C 65.899997,1017.1631 75.337977,1029.9826 86.670287,1037.2521 C 111.68943,1053.1579 143.50235,1055.2085 172.05466,1049.3827 C 190.76877,1045.037 211.36683,1036.5827 220.38658,1018.4851 C 225.99405,1007.8362 222.48494,994.70415 215.04283,985.82879 C 217.9245,979.9368 222.74541,973.98144 222.32408,966.82879 C 220.73169,961.22695 227.17601,960.5063 230.19908,957.32879 C 244.06547,946.23081 252.84881,929.33776 254.85533,911.82879 C 262.83007,930.21215 283.49168,938.83258 302.01158,942.98504 C 331.74601,948.84869 365.05579,945.88878 390.51158,928.51629 C 402.42994,920.62628 411.63663,905.35752 406.32408,890.92254 C 405.16249,886.37086 401.35575,882.93461 399.79283,878.76629 C 403.7913,872.19803 408.07931,864.71431 407.01158,856.48504 C 405.05115,838.24376 387.63398,826.90088 371.73033,821.26629 C 340.69849,810.73371 304.41665,812.17676 275.48033,827.95379 C 262.05221,835.28078 249.10887,849.84385 252.73033,866.23504 C 253.54576,871.98266 257.57735,876.51788 260.19908,881.26629 C 259.99644,884.66462 255.06955,888.14114 252.94816,885.58817 C 247.50134,865.04993 232.44342,847.62091 212.66783,839.86004 C 192.14393,830.17633 166.81707,831.84187 147.51158,843.57879 C 152.35947,836.17994 156.7067,827.17436 154.38658,817.95379 C 149.937,799.62 131.53165,789.56456 114.79283,784.39129 C 101.84484,780.2837 88.218327,778.98457 74.667827,779.54754 z M 79.542827,827.23504 C 98.846157,827.528 119.31527,831.23474 134.48033,843.89129 C 127.98593,849.86773 120.03069,853.9802 111.82408,856.82879 C 103.5979,852.82455 95.957017,846.92521 87.292827,844.14129 C 81.263687,844.74206 79.300917,854.76659 86.074077,856.26629 C 87.911027,858.13553 99.028347,861.53973 91.011577,861.54754 C 67.350947,863.88995 40.957647,861.6898 21.761577,846.29754 C 21.565617,843.82989 26.710387,841.80834 28.824077,839.89129 C 43.973597,830.66198 61.974467,827.52428 79.542827,827.23504 z M 331.35533,862.57879 C 350.7284,862.77475 371.46976,866.4394 386.63658,879.20379 C 368.81451,894.92709 343.73143,898.48973 320.76824,897.50945 C 311.43976,896.91673 302.18095,895.32906 293.35533,892.23504 C 302.15084,890.2867 311.62128,890.18176 320.10533,887.39129 C 322.49963,884.3852 321.62246,878.51795 318.35533,876.48504 C 305.13632,877.34263 291.82126,880.68492 278.57954,882.45566 C 273.77628,884.4057 272.62843,879.79832 276.91783,878.11004 C 292.47573,866.62664 312.38392,862.84352 331.35533,862.57879 z M 146.54283,970.04754 C 144.60858,974.25785 139.7815,981.24937 145.88658,984.42254 C 149.60109,986.76567 154.17646,984.22711 155.10533,980.11004 C 157.52123,977.35685 157.66294,969.94893 161.60533,970.17254 C 172.29276,973.10931 183.84023,973.56563 193.38658,979.73504 C 195.96232,981.64231 200.94098,983.61717 201.60533,986.20379 C 182.84863,1002.2483 156.76406,1005.3901 132.94908,1003.9226 C 117.23539,1002.2801 101.0146,998.31899 88.792827,987.76629 C 104.42259,973.55944 126.50779,969.67698 146.94908,969.11004 L 146.55147,970.0276 L 146.54283,970.04754 z "
         style="fill:#333;fill-opacity:1"
         id="path11114" />
      <path
         d="M 135.45402,1050.1387 C 125.17315,1049.4065 114.02777,1047.2244 105.61799,1044.2971 C 94.960657,1040.5875 86.867127,1035.8729 80.491177,1029.6602 C 76.685027,1025.9515 74.648007,1023.191 72.755077,1019.1767 C 70.740227,1014.9038 70.377527,1013.2167 70.385957,1008.1567 C 70.392367,1004.3003 70.484757,1003.5077 71.200057,1001.1721 C 72.218117,997.84795 73.865237,994.56512 76.021087,991.56341 C 77.455587,989.56609 77.704017,989.02513 77.704017,987.89885 C 77.704017,986.87525 77.510857,986.35547 76.846757,985.59208 C 75.544547,984.09515 73.264477,980.66129 72.325877,978.78346 C 70.401857,974.93414 69.530647,971.16494 69.545997,966.75664 C 69.588827,954.45522 79.173557,942.50254 95.624627,934.23521 C 101.76439,931.14972 107.23033,929.12273 114.71602,927.15535 C 117.17011,926.51036 119.2303,925.93035 119.29422,925.86644 C 119.35813,925.80253 119.20042,925.15542 118.94375,924.42844 C 117.404,920.06734 116.23288,913.73885 115.78458,907.35688 C 115.60508,904.80155 115.41365,902.66627 115.35919,902.61181 C 115.30474,902.55735 114.20129,902.84633 112.9071,903.25399 C 111.61291,903.66164 108.86652,904.40691 106.80402,904.91015 C 81.056887,911.1923 51.874617,909.03808 30.262097,899.25988 C 17.276367,893.38472 7.8469365,884.69994 4.3297565,875.37544 C 1.0424165,866.66027 2.7701765,857.00756 9.0939665,848.75866 C 9.9140465,847.68892 10.202867,847.02281 10.199597,846.20866 C 10.194477,844.93377 10.006527,844.57477 7.8796165,841.77736 C -0.74798349,830.42995 0.073276506,817.10922 10.111557,805.57541 C 19.021357,795.33821 35.452277,787.22271 54.848517,783.47912 C 63.115727,781.88349 67.364907,781.53296 78.604017,781.51945 C 89.413517,781.50645 91.807037,781.6613 99.319557,782.8597 C 113.18817,785.07203 125.65752,789.59065 134.96,795.77502 C 139.46325,798.76882 142.26871,801.16279 145.15718,804.47652 C 151.98662,812.31146 154.38345,821.02083 152.12804,829.80664 C 151.35858,832.80405 149.03179,837.56725 147.0288,840.24535 C 145.69276,842.03172 145.50526,842.45876 145.514,843.69535 C 145.52056,844.62335 145.71639,845.33727 146.08585,845.78011 L 146.64772,846.45359 L 148.70087,845.20392 C 153.38903,842.35045 161.28636,839.03641 166.80701,837.60587 C 172.81222,836.04976 182.15438,835.22824 188.50332,835.69797 C 199.62338,836.52069 208.34693,839.34474 220.29356,845.98933 C 225.14605,848.68823 227.65354,850.42822 231.05563,853.45728 C 240.12786,861.53482 247.21203,872.9115 250.69215,884.99215 C 251.26023,886.96418 251.77995,888.63257 251.84706,888.69967 C 251.91414,888.76677 253.48824,888.57079 255.34503,888.26416 L 258.72102,887.70664 L 260.44791,885.30664 C 261.99753,883.15298 262.17627,882.75003 262.18941,881.38081 C 262.20273,879.9902 262.07163,879.69 260.71014,877.99358 C 243.78516,856.90464 260.5548,831.17641 297.89973,820.9368 C 317.78475,815.48453 340.1226,815.11525 360.18087,819.9072 C 377.55543,824.05801 391.51518,831.89477 398.89635,841.64141 C 405.76335,850.70909 406.96851,860.7878 402.32394,870.30664 C 401.51886,871.95664 400.17252,874.22406 399.33207,875.34535 C 397.96617,877.16774 397.80402,877.54461 397.80402,878.89703 C 397.80402,880.29371 397.95426,880.60968 399.759,883.00831 C 407.24994,892.96441 407.8368,904.05156 401.42214,914.4292 C 391.94151,929.76694 367.61619,941.10765 339.37656,943.35545 C 334.23177,943.76496 323.09262,943.76869 318.30402,943.36251 C 308.72436,942.54994 299.04033,940.64391 291.3597,938.05927 C 268.66428,930.42196 255.02214,916.91318 254.90061,901.95664 C 254.88654,900.22414 254.97768,898.30039 255.10311,897.68164 C 255.32346,896.59491 255.30267,896.5568 254.49261,896.56123 C 253.06167,896.56907 252.99354,896.75978 253.26168,900.00664 C 253.90395,907.78393 252.19059,919.19525 249.16269,927.30664 C 243.88353,941.44886 234.14793,953.4844 222.71749,959.9992 L 220.45931,961.28626 L 220.36965,965.59645 C 220.30076,968.90827 220.13253,970.40844 219.64334,972.07302 C 218.72634,975.19337 216.88646,978.89385 214.81252,981.78904 C 212.32392,985.26311 212.33675,985.82163 214.98772,989.41657 C 219.67624,995.77459 221.55632,1001.6575 221.0726,1008.4567 C 220.83285,1011.8266 220.1648,1014.2867 218.58219,1017.6276 C 215.40511,1024.3345 210.48527,1029.6985 202.80402,1034.8304 C 191.11812,1042.6377 175.80343,1047.6676 157.50402,1049.7087 C 152.42898,1050.2748 140.6031,1050.5054 135.45402,1050.1387 z M 153.30402,1048.6412 C 187.45927,1046.2108 214.52924,1031.0989 219.1988,1011.8553 C 219.86669,1009.1029 219.87079,1003.8477 219.20715,1001.158 C 218.43598,998.03251 216.98489,994.81687 215.02004,991.87938 C 214.04156,990.41654 213.19683,989.26383 213.14286,989.3178 C 213.08889,989.37177 213.15771,990.32688 213.29579,991.44027 C 214.77808,1003.3926 203.63055,1013.6341 184.05402,1018.3054 C 169.92018,1021.6779 151.53959,1021.8494 134.40402,1018.7686 C 119.08157,1016.0138 104.8324,1010.8185 94.804017,1004.3304 C 88.068457,999.97271 82.426287,994.37271 79.984597,989.62183 C 79.445417,988.57273 78.904017,988.57682 78.904017,989.63001 C 78.904017,989.98089 78.613797,990.5769 78.259077,990.95447 C 77.685567,991.56495 77.668957,991.66202 78.109077,991.83091 C 78.664387,992.044 78.768157,992.71978 78.290877,993.01476 C 78.118647,993.1212 77.776927,993.04164 77.531497,992.83795 C 77.168587,992.53676 77.007357,992.57396 76.668057,993.03713 C 76.310937,993.52461 76.312297,993.6412 76.677427,993.84655 C 76.912057,993.9785 77.104017,994.2678 77.104017,994.48945 C 77.104017,995.02316 76.358727,995.29135 75.966247,994.89887 C 75.512957,994.44558 74.044747,997.16941 72.877217,1000.6297 C 71.650247,1004.266 71.340797,1009.3125 72.115167,1013.057 C 73.361907,1019.0856 77.215797,1025.1307 83.104017,1030.2937 C 92.978457,1038.9521 108.61656,1045.2444 126.45402,1047.7364 C 134.86721,1048.9118 144.79838,1049.2465 153.30402,1048.6412 z M 73.537047,1001.4465 C 73.280637,1001.1375 73.292567,1000.9566 73.585377,1000.7136 C 74.103957,1000.2832 74.842737,1000.7624 74.607147,1001.3764 C 74.381307,1001.9649 73.988667,1001.9906 73.537047,1001.4465 z M 157.20402,1005.64 C 173.25367,1003.6539 186.56649,999.25541 196.65589,992.60517 C 199.75233,990.56423 204.60402,986.42888 204.60402,985.83057 C 204.60402,984.91115 198.94238,980.5616 194.39176,977.98502 C 188.31382,974.54366 180.07198,971.55994 175.05402,970.98435 C 171.46667,970.57285 168.92516,970.05842 164.70402,968.88939 C 162.97152,968.40959 160.93433,967.94147 160.17694,967.84913 L 158.79985,967.68125 L 155.40263,974.88595 C 153.28518,979.37658 151.72622,982.31027 151.26426,982.67365 C 149.79637,983.82829 146.87234,983.27804 145.55125,981.59855 C 144.24972,979.94392 144.34423,979.48964 147.30369,973.17493 C 148.81633,969.94734 149.97083,967.22345 149.86922,967.12184 C 149.58363,966.83624 135.57534,967.60857 131.72075,968.12243 C 113.42526,970.56143 97.216487,977.0371 88.322367,985.46078 L 85.954017,987.70385 L 87.004017,988.80685 C 88.538917,990.41921 92.346217,993.22644 95.576467,995.12754 C 105.32279,1000.8636 119.65475,1004.9244 134.10402,1006.0441 C 139.09324,1006.4307 152.74444,1006.1919 157.20402,1005.64 z M 117.52277,1004.9754 C 117.42308,1004.8757 117.16433,1004.8651 116.94777,1004.9517 C 116.70845,1005.0475 116.77954,1005.1186 117.12902,1005.133 C 117.44527,1005.146 117.62246,1005.0751 117.52277,1004.9754 z M 115.80402,1004.5567 C 114.77827,1004.2282 113.98955,1004.2282 114.75402,1004.5567 C 115.08402,1004.6985 115.62402,1004.8105 115.95402,1004.8057 C 116.43636,1004.7986 116.40694,1004.7497 115.80402,1004.5567 z M 108.8413,1002.4709 C 97.091417,998.56291 88.018187,992.94393 82.747287,986.31105 C 79.916167,982.74839 77.801577,977.74916 78.446407,976.14313 C 78.564887,975.84806 78.641457,974.30938 78.616577,972.72385 C 78.518957,966.50343 80.927527,960.97683 86.103487,955.54474 C 90.353957,951.08392 96.551307,946.97686 103.50402,944.01319 C 107.36184,942.36875 113.65805,940.21067 113.89796,940.45058 C 113.98384,940.53646 114.17114,946.64126 114.31419,954.01681 C 114.45724,961.39235 114.61905,967.47167 114.67378,967.5264 C 114.72851,967.58113 116.05145,967.30193 117.61366,966.90596 C 125.48186,964.91161 133.04822,964.025 143.36773,963.88815 C 147.88526,963.82825 151.64474,963.71592 151.72211,963.63855 C 151.79949,963.56117 153.46664,960.09371 155.42689,955.93307 C 157.38715,951.77244 159.21275,948.12324 159.48378,947.82375 C 160.87354,946.28808 163.5623,946.46853 165.26673,948.21185 C 166.99467,949.97924 166.9179,950.39396 163.52078,957.64433 C 161.84488,961.22114 160.44676,964.28262 160.41386,964.44762 C 160.38095,964.61262 162.04152,965.04533 164.10402,965.40921 C 176.30324,967.56147 186.14623,971.01454 194.65902,976.12835 C 197.31274,977.72249 202.05376,981.2129 204.30402,983.22913 C 205.04652,983.89441 205.73571,984.44276 205.83555,984.44769 C 206.16012,984.46369 208.50835,980.91979 209.25166,979.29216 C 209.64991,978.42012 210.18412,976.90387 210.43882,975.92271 C 210.96995,973.87659 211.33128,973.3639 211.86562,973.89824 C 212.7571,974.78972 210.6585,980.37245 208.06642,984.00493 C 206.12381,986.72725 201.15829,991.29862 197.47734,993.75346 C 192.16491,997.29636 181.9031,1001.89 175.95501,1003.3877 C 175.13792,1003.5934 174.61229,1003.8094 174.78694,1003.8676 C 174.96158,1003.9258 176.91562,1003.4178 179.12925,1002.7386 C 197.18231,997.19942 210.77899,987.68229 216.26552,976.74464 C 218.1644,972.95913 218.7795,970.55111 218.93509,966.29364 C 219.05635,962.97533 218.981,961.99508 218.43928,959.84364 C 217.16137,954.76839 214.50635,950.25547 210.17894,945.80292 C 201.55416,936.92873 188.12141,930.43123 171.33139,927.01212 C 152.19068,923.11431 129.55138,924.02765 111.75402,929.41565 C 105.50909,931.30625 102.74544,932.40528 102.84309,932.95931 C 102.95392,933.58813 102.03115,933.98595 101.70097,933.4517 C 101.40409,932.97134 99.762837,933.62106 95.104017,936.06325 C 82.331257,942.75885 74.117167,951.63194 71.542687,961.51485 C 70.824157,964.27316 70.810657,969.70296 71.515147,972.59272 C 72.161097,975.24232 74.290157,979.75047 76.080307,982.25914 C 82.292827,990.9652 93.622337,998.18691 108.15402,1002.7038 C 112.23771,1003.9731 112.96449,1004.1707 113.70402,1004.2125 C 113.95152,1004.2265 111.76329,1003.4428 108.8413,1002.4709 z M 150.12948,981.27454 C 150.90551,980.97675 150.71725,979.48925 149.81356,978.77841 C 148.86088,978.02903 147.69851,977.97814 146.95264,978.65314 C 146.21458,979.32107 146.26187,979.84176 147.14038,980.72027 C 147.86219,981.44208 149.09646,981.67095 150.12948,981.27454 z M 158.70042,964.5924 C 162.1674,957.22711 165.00402,950.91485 165.00402,950.56516 C 165.00402,949.75746 163.80159,948.54275 162.73773,948.27574 C 160.78429,947.78546 160.88416,947.62533 153.92419,962.40664 C 148.09463,974.7872 147.48941,976.21607 148.04014,976.29836 C 149.41187,976.50331 150.55338,977.01406 151.21593,977.71932 C 151.60101,978.12922 152.02424,978.35642 152.15645,978.22421 C 152.28865,978.09201 155.23344,971.95769 158.70042,964.5924 z M 342.00402,941.69023 C 368.56866,938.93052 390.4257,928.57098 399.84279,914.27647 C 405.07335,906.33687 405.84429,897.62925 402.03618,889.50294 C 400.93146,887.14556 398.71692,883.58543 398.12934,883.22229 C 397.96245,883.11915 397.91727,884.15861 398.016,885.82868 C 398.73984,898.07021 386.61489,908.11728 366.08364,912.28869 C 358.4019,913.84941 355.22703,914.10667 343.65402,914.10616 C 332.37135,914.10566 329.21037,913.87625 320.55402,912.42963 C 294.07551,908.00463 272.33043,896.66943 264.80199,883.36739 L 263.87421,881.72814 L 263.69193,882.61739 C 263.59167,883.10648 262.94646,884.24914 262.25811,885.15664 C 261.56979,886.06414 261.00603,886.90789 261.00531,887.03164 C 261.00369,887.31626 261.69696,887.29943 263.3835,886.9739 C 264.11472,886.83276 264.87405,886.77909 265.07091,886.85463 C 265.80417,887.13602 266.9994,890.75954 267.00234,892.71021 C 267.0045,894.13031 266.43612,894.67178 264.67545,894.92695 C 261.36744,895.40637 257.08107,896.17958 256.93794,896.32271 C 256.52307,896.73759 256.16379,900.60422 256.31691,903.00664 C 257.32461,918.81799 274.14306,932.75396 299.70402,938.95768 C 312.9357,942.16905 328.01697,943.14329 342.00402,941.69023 z M 212.52378,939.51524 C 218.77905,936.2662 224.68557,932.39866 229.21522,928.58582 C 231.19111,926.92262 231.30392,926.75943 231.30225,925.5671 C 231.29633,921.34526 228.99799,911.02643 226.45972,903.82563 C 225.01537,899.7282 221.6053,891.75664 221.29684,891.75664 C 221.22955,891.75664 219.50489,892.55692 217.46426,893.53504 C 210.06815,897.08016 200.94415,899.50448 191.44723,900.44799 C 186.79843,900.90984 176.86984,900.82711 172.20402,900.28766 C 160.65766,898.95267 149.97729,895.39649 142.43576,890.3759 C 139.00679,888.09314 135.05701,884.29137 133.35402,881.63448 C 132.69402,880.6048 132.02101,879.80538 131.85845,879.85801 C 131.24234,880.05745 127.45347,886.06406 125.56856,889.82955 C 123.11596,894.72912 121.15604,900.63656 120.301,905.70664 C 119.73987,909.03389 119.66355,910.39968 119.78128,915.00664 C 119.90786,919.9593 120.54883,924.79559 121.15878,925.40015 C 121.26616,925.50659 122.73758,925.3428 124.42861,925.03618 C 131.88667,923.68388 135.62246,923.41194 146.70402,923.41466 C 156.15474,923.41699 157.92832,923.49542 162.45402,924.11112 C 179.06492,926.371 192.44609,930.90744 202.65402,937.7396 C 204.13902,938.73351 205.89402,939.9963 206.55402,940.5458 C 207.21402,941.09531 207.94291,941.54754 208.17378,941.55077 C 208.40464,941.554 210.36215,940.63801 212.52378,939.51524 z M 237.48183,921.18389 C 245.15733,912.74768 249.58893,903.93216 250.57971,895.12906 C 250.99728,891.41889 250.61199,889.11566 248.51007,882.75664 C 246.30906,876.0978 241.54329,867.1712 237.93921,862.95664 L 237.04131,861.90664 L 237.477,863.19849 C 239.29791,868.59763 238.33392,874.67171 234.81639,879.9628 C 233.0177,882.66844 228.52949,886.97837 225.22902,889.16937 C 223.78527,890.1278 222.60402,890.97087 222.60402,891.04286 C 222.60402,891.11485 223.01038,891.97875 223.50705,892.96265 C 226.28861,898.47287 229.73245,908.50478 231.126,915.15664 C 231.84811,918.60351 232.79803,924.35451 232.80225,925.30502 C 232.80471,925.85833 234.93903,923.97872 237.48183,921.18389 z M 119.08502,904.38665 C 120.66206,896.14396 124.6009,887.20865 129.84835,879.96991 L 131.3248,877.93317 L 130.61919,876.18627 C 129.58586,873.628 129.2223,870.54455 129.61545,867.67317 C 129.79415,866.36798 130.07097,864.9566 130.23059,864.53676 C 130.83077,862.95817 130.21633,863.63766 128.07452,866.9211 C 119.97346,879.34019 116.13836,894.05253 117.27362,908.35584 C 117.78034,914.74004 118.00408,915.4136 118.23721,911.25664 C 118.34363,909.35914 118.72514,906.26765 119.08502,904.38665 z M 90.454017,906.33312 C 95.892807,905.72242 100.92713,904.86052 105.60402,903.73937 C 110.66974,902.525 115.54804,901.01258 115.65133,900.6244 C 115.69783,900.44963 115.88858,898.61914 116.07523,896.55664 C 116.60053,890.75186 118.37368,883.54237 120.64674,877.96918 C 121.28324,876.40858 121.80402,875.1051 121.80402,875.07255 C 121.80402,875.04001 120.62277,875.33911 119.17902,875.73723 C 93.963247,882.69054 56.909217,878.401 33.004017,865.76123 C 23.652107,860.81646 16.090467,854.30006 12.700407,848.2642 C 11.778917,846.62353 11.404017,846.38319 11.404017,847.4331 C 11.404017,847.80516 10.657777,849.10153 9.7457165,850.31393 C 7.6851965,853.05293 5.6296465,857.25691 4.8198865,860.38814 C 3.9761365,863.65083 3.9702665,868.84016 4.8066065,872.13365 C 9.0804665,888.96392 31.593217,902.5438 61.204017,906.15305 C 69.247077,907.13341 82.594877,907.21558 90.454017,906.33312 z M 8.4604665,853.73508 C 8.6110665,852.95306 9.6040165,852.86585 9.6040165,853.63464 C 9.6040165,854.06397 9.4113465,854.25664 8.9820165,854.25664 C 8.5526865,854.25664 8.3911365,854.09508 8.4604665,853.73508 z M 340.95402,899.10756 C 356.73723,897.42152 370.9773,892.81163 381.19443,886.08068 C 383.88108,884.31073 389.1018,879.92886 389.32155,879.25942 C 389.38422,879.06845 388.44966,878.07756 387.24477,877.05744 C 366.87177,859.80891 324.62499,855.39019 292.95402,867.19528 C 285.06234,870.13684 277.34241,874.65968 272.80092,879.0023 L 270.45402,881.24643 L 271.40016,882.07654 C 271.92054,882.53309 272.93304,883.39724 273.65016,883.99685 L 274.95402,885.08707 L 295.65402,881.68172 C 307.03902,879.80878 316.72179,878.27193 317.17131,878.26651 C 318.24042,878.2536 318.80004,879.3288 319.22679,882.21567 C 319.62189,884.8885 319.32723,885.92113 318.09702,886.17508 C 317.63337,886.27079 310.57152,887.42904 302.40402,888.74897 C 294.23652,890.06891 287.21652,891.23199 286.80402,891.33359 C 286.11702,891.50281 286.185,891.57672 287.61303,892.21345 C 290.48568,893.49429 296.12772,895.35492 300.40596,896.43231 C 307.24446,898.15445 312.71565,898.95406 322.65402,899.68383 C 325.61208,899.90104 336.8343,899.54766 340.95402,899.10756 z M 302.62278,898.47539 C 302.52309,898.3757 302.26434,898.36505 302.04777,898.45171 C 301.80846,898.54747 301.87953,898.61856 302.22903,898.63295 C 302.54526,898.64598 302.72247,898.57508 302.62278,898.47539 z M 301.42278,898.17539 C 301.32309,898.0757 301.06434,898.06505 300.84777,898.15171 C 300.60846,898.24747 300.67953,898.31856 301.02903,898.33295 C 301.34526,898.34598 301.52247,898.27508 301.42278,898.17539 z M 296.91732,896.98484 C 283.45314,893.01703 272.71623,886.68515 267.12003,879.41246 C 264.59763,876.13443 262.40232,870.97381 262.95777,869.62815 C 263.07618,869.34132 263.20173,867.62164 263.2368,865.80664 C 263.33859,860.53626 264.76704,856.51199 268.15437,851.9526 C 273.39417,844.89973 282.37209,839.1171 294.45402,835.01311 L 298.65402,833.58645 L 298.91733,847.25459 L 299.18061,860.92271 L 300.11733,860.75599 C 300.63252,860.66429 302.53902,860.246 304.35402,859.82645 C 316.78914,856.95198 332.46192,856.43589 346.3578,858.4433 C 363.68364,860.94622 379.67226,867.78204 388.74552,876.56591 L 390.33699,878.10664 L 391.21245,877.05664 C 392.54835,875.45439 394.25451,872.06039 394.98267,869.55664 C 395.4945,867.79673 395.75871,867.30664 396.19554,867.30664 C 396.99405,867.30664 396.79674,869.07628 395.67345,871.98905 C 394.42707,875.22101 392.76162,877.66208 389.59044,880.90491 C 383.33373,887.30305 375.46122,891.83365 363.90402,895.68734 C 358.19328,897.59156 357.49572,897.99674 362.44002,896.53772 C 380.3415,891.25511 393.70746,882.4507 399.98424,871.80664 C 406.51542,860.73113 404.50602,848.86284 394.39206,838.77706 C 385.53891,829.94855 372.77688,823.86909 355.80402,820.39482 C 346.86135,818.56429 340.07784,817.99029 328.95402,818.12285 C 311.11566,818.33543 295.56372,821.74778 281.85402,828.45738 C 267.43224,835.51547 258.88224,844.42421 256.14618,855.24383 C 255.63972,857.24664 255.56073,858.28099 255.68505,861.28358 C 255.85947,865.49564 256.34646,867.47771 258.12234,871.20326 C 263.67327,882.8483 277.83957,892.21991 298.20402,897.71899 C 301.0407,898.48499 300.00759,897.89553 296.91732,896.98484 z M 397.23705,870.04644 C 396.98064,869.73748 396.99258,869.55662 397.28538,869.3136 C 397.80396,868.88322 398.54274,869.36243 398.30715,869.97636 C 398.08131,870.56489 397.68867,870.5906 397.23705,870.04644 z M 358.42278,897.57539 C 358.32309,897.4757 358.06434,897.46505 357.84777,897.55171 C 357.60846,897.64747 357.67953,897.71856 358.02903,897.73295 C 358.34526,897.74598 358.52247,897.67508 358.42278,897.57539 z M 263.33736,893.26788 C 265.40748,892.91871 265.50402,892.86596 265.50402,892.08398 C 265.50402,891.63384 265.29363,890.55705 265.03647,889.69111 C 264.59817,888.21526 264.51834,888.12749 263.76147,888.28944 C 263.31738,888.38446 260.86152,888.7994 258.30402,889.21154 C 251.38497,890.32653 252.04179,890.07004 252.32391,891.54678 C 252.45627,892.2397 252.64296,893.29091 252.73872,893.8828 L 252.91287,894.95896 L 257.04177,894.29615 C 259.31268,893.9316 262.1457,893.46889 263.33736,893.26788 z M 300.90306,887.15471 C 316.11336,884.65928 317.86335,884.3155 317.96196,883.80351 C 318.13749,882.8921 317.39262,880.03343 316.93374,879.85734 C 316.70352,879.769 308.51388,881.00661 298.73457,882.6076 C 288.95526,884.20859 280.04277,885.65588 278.92902,885.82381 C 277.81527,885.99173 276.90402,886.21534 276.90402,886.32072 C 276.90402,886.7668 282.57789,889.95947 283.34676,889.94602 C 283.68075,889.94018 291.58107,888.6841 300.90306,887.15471 z M 177.59698,881.85554 C 180.94547,880.13241 182.18321,876.31814 180.33805,873.40861 C 177.69311,869.23798 170.96143,870.08566 168.85172,874.85501 C 166.63491,879.86646 172.4369,884.51091 177.59698,881.85554 z M 89.686887,863.71028 C 93.680107,863.22228 99.868377,862.19228 100.0803,861.98036 C 100.14074,861.91992 96.784547,859.99177 92.622097,857.69557 C 88.459657,855.39938 84.750267,853.2199 84.379017,852.85229 C 82.516067,851.00762 84.817877,846.15664 87.556127,846.15664 C 88.179757,846.15664 92.111427,848.17799 100.06531,852.58785 L 111.66501,859.01906 L 113.96282,858.17183 C 119.85635,855.99881 124.51565,853.68292 129.06042,850.66758 C 132.33396,848.49568 136.63171,844.93839 136.93405,844.15051 C 137.17039,843.53462 136.84961,843.17813 133.97186,840.85852 C 120.63726,830.11018 96.482027,824.01588 72.904017,825.45128 C 54.391077,826.57832 38.142957,831.31974 26.636257,838.95281 C 23.404797,841.09643 19.859137,844.01614 19.002927,845.23854 C 18.503747,845.95123 18.518407,845.97741 20.415327,847.76039 C 24.436327,851.53985 32.069687,855.83131 39.604017,858.54822 C 46.840697,861.1578 57.631627,863.40457 66.454017,864.13864 C 71.326807,864.54408 84.913897,864.29356 89.686887,863.71028 z M 48.822767,862.77539 C 48.723077,862.6757 48.464327,862.66505 48.247767,862.75171 C 48.008447,862.84747 48.079537,862.91856 48.429017,862.93295 C 48.745267,862.94598 48.922457,862.87508 48.822767,862.77539 z M 46.354017,862.15616 C 42.751767,861.10427 38.065177,859.51782 35.764437,858.57149 C 24.493797,853.93567 16.009427,847.21674 12.416237,840.08162 C 11.221397,837.70899 10.392677,834.80616 10.775047,834.3329 C 10.920027,834.15345 11.099947,832.18414 11.174867,829.95664 C 11.297167,826.32052 11.409917,825.64057 12.278197,823.30298 C 15.519357,814.57717 24.903627,806.48087 37.752067,801.32535 C 41.385997,799.86722 46.168727,798.32135 46.383047,798.53567 C 46.454667,798.60729 46.622797,804.69292 46.756677,812.0593 C 46.890547,819.42567 47.063517,825.51614 47.141047,825.59367 C 47.218577,825.6712 47.931267,825.53924 48.724797,825.30042 C 49.518327,825.06161 52.212027,824.46689 54.710797,823.97884 C 75.707307,819.87788 99.578427,821.93219 117.47411,829.38017 C 124.87453,832.46015 132.87297,837.44866 136.6399,841.3336 C 137.29214,842.00627 137.96821,842.55664 138.14229,842.55664 C 138.52439,842.55664 140.66966,839.38786 141.69995,837.30161 C 142.37724,835.93017 142.69937,834.93621 143.22965,832.58164 C 143.4284,831.69914 144.21091,831.46493 144.49419,832.20315 C 144.74191,832.8487 144.0561,835.51213 143.08445,837.67802 C 139.73107,845.15305 130.6723,852.71999 119.25402,857.58401 C 117.60402,858.28689 114.36402,859.50989 112.05402,860.30179 C 109.74402,861.09369 108.00347,861.74499 108.18614,861.74912 C 108.9469,861.76634 115.94213,859.45981 119.70402,857.95134 C 133.11823,852.57241 143.3221,844.61347 148.28725,835.65664 C 151.2458,830.3196 152.25298,823.64049 150.931,818.12466 C 147.22559,802.66423 128.54358,789.83673 102.45402,784.83924 C 77.942417,780.144 50.416757,783.17237 30.348037,792.77232 C 16.154347,799.56193 7.1208765,808.62703 4.1420265,819.07009 C 3.2022665,822.36462 3.1972865,827.93185 4.1311765,831.20364 C 5.5441865,836.15402 8.1039965,840.42082 12.229197,844.70175 C 17.451417,850.12111 24.523777,854.62563 33.562387,858.28927 C 38.381137,860.24246 45.943767,862.62578 47.254017,862.6041 C 47.584017,862.59864 47.179017,862.39706 46.354017,862.15616 z M 106.42277,862.17539 C 106.32308,862.0757 106.06433,862.06505 105.84777,862.15171 C 105.60845,862.24747 105.67954,862.31856 106.02902,862.33295 C 106.34527,862.34598 106.52246,862.27508 106.42277,862.17539 z M 107.62277,861.87539 C 107.52308,861.7757 107.26433,861.76505 107.04777,861.85171 C 106.80845,861.94747 106.87954,862.01856 107.22902,862.03295 C 107.54527,862.04598 107.72246,861.97508 107.62277,861.87539 z M 106.02907,860.66047 C 107.69279,860.22257 109.16305,859.7693 109.29631,859.65318 C 109.42957,859.53707 104.60129,856.70864 98.566797,853.3678 C 87.809747,847.41244 87.580527,847.30303 86.855747,847.77792 C 85.857687,848.43187 85.148747,849.88721 85.261437,851.05074 C 85.350367,851.96894 85.685307,852.19222 93.754017,856.71214 C 98.374017,859.30016 102.34529,861.42641 102.57907,861.43714 C 102.81284,861.44786 104.36534,861.09836 106.02907,860.66047 z M 74.667827,779.54756 C 51.662467,779.93526 27.420147,786.32192 10.386577,802.29756 C 0.46504651,811.61916 -3.7338735,827.65064 4.0115765,839.61006 C 5.0159365,842.46068 10.424927,845.41208 6.8865765,848.39131 C -2.1044935,859.55274 -0.98628349,876.83262 9.1990765,886.82881 C 25.952617,904.56467 51.852657,909.9208 75.449077,910.45381 C 88.360367,910.56533 101.24592,908.83947 113.60533,905.14131 C 114.05436,911.67233 114.79627,918.24294 116.85533,924.48506 C 98.162827,929.20888 77.576537,938.21395 69.449077,956.92256 C 65.075987,967.35692 68.548107,979.32158 75.699077,987.54756 C 73.644777,992.6391 69.352657,997.20513 68.667827,1003.0476 C 65.899997,1017.1631 75.337977,1029.9826 86.670287,1037.2521 C 111.68943,1053.1579 143.50235,1055.2085 172.05466,1049.3827 C 190.76877,1045.037 211.36683,1036.5827 220.38658,1018.4851 C 225.99405,1007.8362 222.48494,994.70417 215.04283,985.82881 C 217.9245,979.93682 222.74541,973.98146 222.32408,966.82881 C 220.73169,961.22697 227.17601,960.50632 230.19908,957.32881 C 244.06547,946.23083 252.84881,929.33778 254.85533,911.82881 C 262.83007,930.21217 283.49168,938.8326 302.01158,942.98506 C 331.74601,948.84871 365.05579,945.8888 390.51158,928.51631 C 402.42994,920.6263 411.63663,905.35754 406.32408,890.92256 C 405.16249,886.37088 401.35575,882.93463 399.79283,878.76631 C 403.7913,872.19805 408.07931,864.71433 407.01158,856.48506 C 405.05115,838.24378 387.63398,826.9009 371.73033,821.26631 C 340.69849,810.73373 304.41665,812.17678 275.48033,827.95381 C 262.05221,835.2808 249.10887,849.84387 252.73033,866.23506 C 253.54576,871.98268 257.57735,876.5179 260.19908,881.26631 C 259.99644,884.66464 255.06955,888.14116 252.94816,885.58819 C 247.50134,865.04995 232.44342,847.62093 212.66783,839.86006 C 192.14393,830.17635 166.81707,831.84189 147.51158,843.57881 C 152.35947,836.17996 156.7067,827.17438 154.38658,817.95381 C 149.937,799.62002 131.53165,789.56458 114.79283,784.39131 C 101.84484,780.28372 88.218327,778.98459 74.667827,779.54756 z M 79.542827,827.23506 C 98.846157,827.52802 119.31527,831.23476 134.48033,843.89131 C 127.98593,849.86775 120.03069,853.98022 111.82408,856.82881 C 103.5979,852.82457 95.957017,846.92523 87.292827,844.14131 C 81.263687,844.74208 79.300917,854.76661 86.074077,856.26631 C 87.911027,858.13555 99.028347,861.53975 91.011577,861.54756 C 67.350947,863.88997 40.957647,861.68982 21.761577,846.29756 C 21.565617,843.82991 26.710387,841.80836 28.824077,839.89131 C 43.973597,830.662 61.974467,827.5243 79.542827,827.23506 z M 331.35533,862.57881 C 350.7284,862.77477 371.46976,866.43942 386.63658,879.20381 C 368.81451,894.92711 343.73143,898.48975 320.76824,897.50947 C 311.43976,896.91675 302.18095,895.32908 293.35533,892.23506 C 302.15084,890.28672 311.62128,890.18178 320.10533,887.39131 C 322.49963,884.38522 321.62246,878.51797 318.35533,876.48506 C 305.13632,877.34265 291.82126,880.68494 278.57954,882.45568 C 273.77628,884.40572 272.62843,879.79834 276.91783,878.11006 C 292.47573,866.62666 312.38392,862.84354 331.35533,862.57881 z M 146.54283,970.04756 C 144.60858,974.25787 139.7815,981.24939 145.88658,984.42256 C 149.60109,986.76569 154.17646,984.22713 155.10533,980.11006 C 157.52123,977.35687 157.66294,969.94895 161.60533,970.17256 C 172.29276,973.10933 183.84023,973.56565 193.38658,979.73506 C 195.96232,981.64233 200.94098,983.61719 201.60533,986.20381 C 182.84863,1002.2483 156.76406,1005.3901 132.94908,1003.9226 C 117.23539,1002.2801 101.0146,998.31901 88.792827,987.76631 C 104.42259,973.55946 126.50779,969.677 146.94908,969.11006 L 146.55147,970.02762 L 146.54283,970.04756 z "
         style="fill:white;fill-opacity:1"
         id="path11112" />
    </g>
  </g>
</svg>
