<?xml version="1.0" encoding="UTF-8" standalone="no"?>
<!-- Created with Inkscape (http://www.inkscape.org/) -->
<svg
   xmlns:dc="http://purl.org/dc/elements/1.1/"
   xmlns:cc="http://web.resource.org/cc/"
   xmlns:rdf="http://www.w3.org/1999/02/22-rdf-syntax-ns#"
   xmlns:svg="http://www.w3.org/2000/svg"
   xmlns="http://www.w3.org/2000/svg"
   xmlns:xlink="http://www.w3.org/1999/xlink"
   xmlns:sodipodi="http://sodipodi.sourceforge.net/DTD/sodipodi-0.dtd"
   xmlns:inkscape="http://www.inkscape.org/namespaces/inkscape"
   width="210mm"
   height="297mm"
   id="svg6406"
   sodipodi:version="0.32"
   inkscape:version="0.44.1"
   sodipodi:docbase="C:\Projets\CMD\Presentations"
   sodipodi:docname="toornix.svg">
  <defs
     id="defs3">
    <linearGradient
       id="linearGradient12742">
      <stop
         style="stop-color:#425d90;stop-opacity:1;"
         offset="0"
         id="stop12744" />
      <stop
         style="stop-color:white;stop-opacity:1;"
         offset="1"
         id="stop12746" />
    </linearGradient>
    <linearGradient
       inkscape:collect="always"
       xlink:href="#linearGradient12742"
       id="linearGradient12748"
       x1="297.36478"
       y1="475.82959"
       x2="304.46603"
       y2="490.47592"
       gradientUnits="userSpaceOnUse" />
    <linearGradient
       inkscape:collect="always"
       xlink:href="#linearGradient12742"
       id="linearGradient12752"
       gradientUnits="userSpaceOnUse"
       x1="300.91541"
       y1="486.92529"
       x2="297.80862"
       y2="474.49811" />
    <linearGradient
       inkscape:collect="always"
       xlink:href="#linearGradient12742"
       id="linearGradient16364"
       gradientUnits="userSpaceOnUse"
       x1="300.91541"
       y1="486.92529"
       x2="297.80862"
       y2="474.49811" />
    <linearGradient
       inkscape:collect="always"
       xlink:href="#linearGradient12742"
       id="linearGradient16366"
       gradientUnits="userSpaceOnUse"
       x1="297.36478"
       y1="475.82959"
       x2="304.46603"
       y2="490.47592" />
  </defs>
  <sodipodi:namedview
     inkscape:document-units="mm"
     id="base"
     pagecolor="#ffffff"
     bordercolor="#666666"
     borderopacity="1.0"
     inkscape:pageopacity="0.0"
     inkscape:pageshadow="2"
     inkscape:zoom="2.253125"
     inkscape:cx="157.07512"
     inkscape:cy="534.28571"
     inkscape:current-layer="layer1"
     inkscape:window-width="1440"
     inkscape:window-height="814"
     inkscape:window-x="-4"
     inkscape:window-y="-4" />
  <metadata
     id="metadata4">
    <rdf:RDF>
      <cc:Work
         rdf:about="">
        <dc:format>image/svg+xml</dc:format>
        <dc:type
           rdf:resource="http://purl.org/dc/dcmitype/StillImage" />
      </cc:Work>
    </rdf:RDF>
  </metadata>
  <g
     inkscape:label="Layer 1"
     inkscape:groupmode="layer"
     id="layer1">
    <image
       y="483.39063"
       x="-103.7427"
       id="image6470"
       height="137"
       width="137"
       sodipodi:absref="D:\logoSatoorn.jpg"
       xlink:href="D:\logoSatoorn.jpg" />
    <g
       id="g16318">
      <path
         transform="translate(0.443859,-0.443852)"
         d="M 308.01665 480.7117 A 7.1012483 9.7642164 0 1 1  293.81416,480.7117 A 7.1012483 9.7642164 0 1 1  308.01665 480.7117 z"
         sodipodi:ry="9.7642164"
         sodipodi:rx="7.1012483"
         sodipodi:cy="480.7117"
         sodipodi:cx="300.91541"
         id="path12750"
         style="opacity:1;fill:url(#linearGradient12752);fill-opacity:1;stroke:none;stroke-width:1.08779526;stroke-linecap:round;stroke-linejoin:round;stroke-miterlimit:4;stroke-dasharray:none;stroke-opacity:1"
         sodipodi:type="arc" />
      <path
         transform="translate(19.52843,0.443823)"
         d="M 308.01665 480.7117 A 7.1012483 9.7642164 0 1 1  293.81416,480.7117 A 7.1012483 9.7642164 0 1 1  308.01665 480.7117 z"
         sodipodi:ry="9.7642164"
         sodipodi:rx="7.1012483"
         sodipodi:cy="480.7117"
         sodipodi:cx="300.91541"
         id="path12740"
         style="opacity:1;fill:url(#linearGradient12748);fill-opacity:1;stroke:none;stroke-width:1.08779526;stroke-linecap:round;stroke-linejoin:round;stroke-miterlimit:4;stroke-dasharray:none;stroke-opacity:1"
         sodipodi:type="arc" />
      <path
         transform="matrix(0.987835,-5.258939e-3,9.235463e-3,0.994586,-80.4612,-84.32819)"
         d="M 459.80582 568.81158 A 75.006935 34.396671 0 1 1  309.79195,568.81158 A 75.006935 34.396671 0 1 1  459.80582 568.81158 z"
         sodipodi:ry="34.396671"
         sodipodi:rx="75.006935"
         sodipodi:cy="568.81158"
         sodipodi:cx="384.79889"
         id="path8283"
         style="opacity:1;fill:none;fill-opacity:1;stroke:#425d90;stroke-width:1.09742048;stroke-linecap:round;stroke-linejoin:round;stroke-miterlimit:4;stroke-dasharray:none;stroke-opacity:1"
         sodipodi:type="arc" />
      <path
         transform="matrix(-0.489363,0.85812,-0.865954,-0.489295,985.7811,427.4937)"
         d="M 459.80582 568.81158 A 75.006935 34.396671 0 1 1  309.79195,568.81158 A 75.006935 34.396671 0 1 1  459.80582 568.81158 z"
         sodipodi:ry="34.396671"
         sodipodi:rx="75.006935"
         sodipodi:cy="568.81158"
         sodipodi:cx="384.79889"
         id="path8285"
         style="opacity:1;fill:none;fill-opacity:1;stroke:#425d90;stroke-width:1.09742054;stroke-linecap:round;stroke-linejoin:round;stroke-miterlimit:4;stroke-dasharray:none;stroke-opacity:1"
         sodipodi:type="arc" />
      <path
         transform="matrix(-0.498472,-0.852861,0.856719,-0.505291,9.409575,1094.976)"
         d="M 459.80582 568.81158 A 75.006935 34.396671 0 1 1  309.79195,568.81158 A 75.006935 34.396671 0 1 1  459.80582 568.81158 z"
         sodipodi:ry="34.396671"
         sodipodi:rx="75.006935"
         sodipodi:cy="568.81158"
         sodipodi:cx="384.79889"
         id="path8287"
         style="opacity:1;fill:none;fill-opacity:1;stroke:#425d90;stroke-width:1.09742036;stroke-linecap:round;stroke-linejoin:round;stroke-miterlimit:4;stroke-dasharray:none;stroke-opacity:1"
         sodipodi:type="arc" />
      <flowRoot
         transform="matrix(2.59069,0,0,2.959377,-451.8421,-948.5566)"
         id="flowRoot6499"
         xml:space="preserve"><flowRegion
           id="flowRegion6501"><rect
             y="476.71725"
             x="279.61166"
             height="41.719833"
             width="139.362"
             id="rect6503" /></flowRegion><flowPara
           id="flowPara6505">Toornix</flowPara></flowRoot>      <path
         style="fill:#425d90;fill-opacity:1"
         d="M 332.76161,542.92379 C 332.15839,542.8983 332.14986,542.8946 332.15189,542.65982 C 332.15302,542.52886 332.18828,542.26332 332.23025,542.06974 C 332.38657,541.34855 332.53013,539.08975 332.56718,536.76831 C 332.57142,536.50279 332.59223,536.48234 332.85806,536.48234 C 333.01916,536.48234 333.1633,536.53376 333.18765,536.59994 C 333.21146,536.66463 333.23546,537.36745 333.24099,538.16178 C 333.25223,539.77424 333.35679,541.16196 333.54387,542.18139 C 333.61252,542.55553 333.66871,542.86694 333.66871,542.87339 C 333.66878,542.92351 333.27405,542.94545 332.76161,542.92379 z M 331.01173,542.11556 C 330.98364,542.06816 330.99536,541.95927 331.03777,541.87358 C 331.19011,541.56583 331.73353,539.31265 332.01614,537.81697 C 332.2879,536.37878 332.35239,536.13628 332.43909,536.22669 C 332.49224,536.28211 332.19361,540.15725 332.05661,541.18983 C 331.91479,542.25874 331.94738,542.20172 331.47813,542.20172 C 331.2497,542.20172 331.03982,542.16294 331.01173,542.11556 z M 333.76243,541.64852 C 333.71162,541.34425 333.59442,540.18608 333.50199,539.07479 C 333.40956,537.96351 333.31581,536.86341 333.29365,536.63012 C 333.26535,536.33226 333.28249,536.21609 333.35119,536.23997 C 333.405,536.25868 333.58933,537.00389 333.76081,537.89599 C 334.07755,539.54379 334.29296,540.47499 334.59224,541.4902 C 334.68374,541.80059 334.73898,542.08766 334.71499,542.12813 C 334.691,542.16861 334.48765,542.20172 334.2631,542.20172 L 333.85482,542.20172 L 333.76243,541.64852 z M 330.18941,541.37467 C 329.92337,541.31506 329.67987,541.23935 329.64829,541.20642 C 329.61672,541.17349 329.69578,540.99791 329.82398,540.81623 C 330.93135,539.24699 331.64199,537.86898 331.88416,536.82131 C 331.96516,536.47091 332.06798,536.21935 332.13034,536.21899 C 332.24979,536.21829 332.25815,536.16668 331.88125,537.7582 C 331.21641,540.56566 330.91875,541.51814 330.71531,541.48908 C 330.6921,541.48576 330.45545,541.43428 330.18941,541.37467 z M 334.86541,541.38504 C 334.75285,541.24363 334.44471,540.141 333.96025,538.1461 C 333.56811,536.53135 333.52868,536.26462 333.66873,536.17437 C 333.71601,536.1439 333.75311,536.2126 333.75311,536.33063 C 333.75311,536.86142 334.39867,538.43249 335.06283,539.51801 C 335.43275,540.12263 336.0368,540.98685 336.14787,541.07038 C 336.2557,541.15149 335.97469,541.28541 335.45772,541.39929 C 334.91424,541.51902 334.97316,541.52044 334.86541,541.38504 z M 329.97695,538.92883 C 329.87253,538.87514 329.78716,538.80754 329.78725,538.77864 C 329.78734,538.74974 329.97346,538.59388 330.20086,538.43227 C 330.81442,537.99623 331.09183,537.68168 331.48045,536.98139 L 331.83065,536.35035 L 331.73928,535.6694 C 331.63058,534.85924 331.37865,534.28257 331.1334,534.28257 C 331.0136,534.28257 330.94972,534.35829 330.91447,534.54204 C 330.78564,535.21373 330.31312,535.18084 329.9197,534.47284 C 329.70597,534.08819 329.59767,533.99397 329.11806,533.77537 C 328.81307,533.63636 328.17218,533.411 327.69386,533.27456 C 326.7626,533.00893 326.35068,532.77938 326.18217,532.43213 C 326.02385,532.10587 326.05067,531.57252 326.23927,531.29633 L 326.40433,531.05461 L 325.50092,530.60589 C 324.40939,530.06372 322.71976,529.2671 322.66133,529.2671 C 322.54484,529.2671 319.35,527.65644 319.20847,527.52636 C 318.6697,527.03117 316.21265,523.94338 316.29411,523.86388 C 316.31271,523.84572 316.82157,524.32662 317.42492,524.93253 C 318.78989,526.30334 320.04062,527.35512 321.04252,527.9747 C 321.95871,528.54128 322.19258,528.67157 322.19258,528.6154 C 322.19258,528.59233 321.84133,528.35676 321.41203,528.09192 C 320.26169,527.38226 319.77475,526.78045 319.08579,525.21694 C 318.73866,524.42917 318.35415,523.29734 318.41286,523.23612 C 318.43205,523.21612 318.51719,523.40673 318.60206,523.6597 C 319.0395,524.9636 319.89044,526.32742 320.8979,527.33934 C 321.61635,528.06095 323.29849,529.28538 324.11531,529.68128 C 325.33527,530.27257 326.92675,530.8564 327.5394,530.9374 C 328.20648,531.0256 329.38792,531.38746 329.90747,531.66273 C 330.08971,531.75927 330.43358,532.03034 330.67162,532.2651 L 331.10443,532.69193 L 331.10492,531.48546 C 331.10533,530.46717 331.17293,529.70706 331.26307,529.70706 C 331.27534,529.70706 331.42665,529.76861 331.59931,529.84384 C 331.77197,529.91906 331.97596,529.96662 332.05263,529.94952 C 332.12929,529.93242 331.9906,529.84717 331.74442,529.76009 C 331.41768,529.6445 331.30399,529.56251 331.32336,529.45642 C 331.36946,529.20406 331.70684,529.23618 332.04277,529.52492 C 332.21562,529.67348 332.41283,529.79505 332.48102,529.79505 C 332.5492,529.79505 332.44396,529.67156 332.24714,529.52063 C 332.05032,529.3697 331.90359,529.20142 331.92107,529.14667 C 331.98043,528.96077 332.21086,528.994 332.47611,529.22674 C 332.62153,529.35434 332.74051,529.41796 332.74051,529.36811 C 332.74051,529.31826 332.70069,529.25183 332.65203,529.22047 C 332.59154,529.18149 332.59481,529.12417 332.66236,529.0393 C 332.86627,528.7831 333.21946,528.99158 333.07113,529.28059 C 333.01587,529.38824 333.01621,529.44309 333.07211,529.44309 C 333.11852,529.44309 333.19576,529.36658 333.24375,529.27306 C 333.41264,528.94401 333.91671,528.94948 333.79542,529.27905 C 333.76924,529.35019 333.63246,529.47945 333.49147,529.5663 C 333.35048,529.65315 333.25681,529.7468 333.2833,529.77444 C 333.3098,529.80207 333.50276,529.69641 333.7121,529.53965 C 334.10938,529.24215 334.36538,529.21201 334.4107,529.45743 C 334.43013,529.56262 334.31603,529.64381 333.98975,529.75691 C 333.74357,529.84226 333.59022,529.92885 333.64897,529.94935 C 333.70772,529.96985 333.91817,529.92893 334.11664,529.85841 L 334.4775,529.7302 L 334.63379,530.24027 C 334.78897,530.74668 334.78581,531.37226 334.62254,532.46915 L 334.57158,532.8115 L 334.9291,532.40705 C 335.12573,532.18461 335.44678,531.90474 335.64254,531.78511 C 336.17987,531.45675 337.42061,531.04882 338.22189,530.93707 C 338.61444,530.88232 338.99816,530.80264 339.07459,530.75997 C 339.15103,530.71731 339.51772,530.56667 339.88945,530.4252 C 341.4246,529.841 342.08358,529.49097 343.24625,528.64223 C 344.51756,527.71419 344.98144,527.29682 345.5834,526.53939 C 346.16263,525.81057 346.57399,525.09495 346.97434,524.11965 C 347.36476,523.16855 347.43653,523.11796 347.17242,523.98003 C 346.84353,525.05357 346.0684,526.57796 345.55479,527.16132 C 345.26697,527.48822 344.75968,527.8728 344.13228,528.2397 C 343.83061,528.41613 343.61588,528.56108 343.6551,528.56182 C 343.77477,528.5641 344.64231,528.04626 345.36345,527.54211 C 346.22833,526.93747 347.2918,525.99358 348.48616,524.77053 C 349.00116,524.24317 349.45184,523.81169 349.48768,523.81169 C 349.62753,523.81169 348.14133,525.74421 347.15756,526.84156 C 346.34273,527.75046 346.31742,527.76478 341.8763,529.82844 C 339.94348,530.72657 339.4068,531.00413 339.4068,531.10562 C 339.4068,531.14727 339.46376,531.23065 339.53338,531.29089 C 339.61941,531.36534 339.65995,531.56479 339.65995,531.9136 C 339.65995,532.3466 339.62627,532.46189 339.44435,532.65159 C 339.181,532.9262 338.79573,533.09978 338.06452,533.27324 C 337.46167,533.41625 337.24678,533.4924 336.53777,533.81421 C 336.15321,533.98876 336.03429,534.09899 335.844,534.45725 C 335.71769,534.69506 335.54441,534.92866 335.45893,534.97636 C 335.22292,535.10807 334.90211,534.90365 334.8497,534.58817 C 334.81592,534.38481 334.76195,534.32657 334.6073,534.32657 C 334.44784,534.32657 334.37656,534.41095 334.24817,534.75179 C 334.16007,534.98567 334.05235,535.43938 334.0088,535.76003 C 333.93248,536.32199 333.93914,536.36065 334.19328,536.83065 C 334.56603,537.51999 334.89705,537.9415 335.30164,538.24195 C 336.02354,538.77804 336.01202,538.7634 335.82547,538.90751 C 335.73538,538.97711 335.51928,539.03406 335.34524,539.03406 L 335.02881,539.03406 L 334.57618,538.08816 C 333.89784,536.67059 333.80976,536.38275 333.87442,535.79477 C 334.07785,533.94472 334.28693,532.37115 334.34424,532.25879 C 334.40122,532.14707 334.31628,532.1268 333.79106,532.1268 C 333.2295,532.1268 333.16233,532.14561 333.08392,532.32478 C 332.97183,532.58092 332.79148,532.5774 332.67763,532.31685 C 332.59536,532.12858 332.54725,532.11444 332.11572,532.15176 C 331.79051,532.17988 331.59997,532.15498 331.50285,532.07169 C 331.37473,531.96181 331.36704,531.97782 331.41834,532.24779 C 331.44937,532.41112 331.47534,532.5893 331.47605,532.64375 C 331.47676,532.69819 331.51336,532.68334 331.55738,532.61075 C 331.68233,532.40472 331.87665,532.66255 331.94754,533.1284 C 331.99449,533.43696 331.98278,533.50592 331.88897,533.47331 C 331.82448,533.45089 331.72372,533.27734 331.66507,533.08765 L 331.55842,532.74273 L 331.59777,533.18269 C 331.61941,533.42466 331.70225,534.22441 331.78185,534.95991 C 331.95017,536.51502 331.96188,536.45105 331.22945,537.97817 C 330.75944,538.95816 330.73503,538.99064 330.45547,539.00827 C 330.29671,539.01829 330.08138,538.98255 329.97695,538.92883 z M 332.413,531.70484 C 332.78836,531.16498 332.59679,530.42815 332.04398,530.28552 C 331.7676,530.2142 331.70155,530.23015 331.51461,530.41328 C 331.39714,530.52836 331.31993,530.6739 331.34305,530.73672 C 331.36617,530.79954 331.3483,530.85094 331.30334,530.85094 C 331.19659,530.85094 331.1987,531.21659 331.30717,531.51408 C 331.36187,531.66411 331.43639,531.73126 331.51383,531.70028 C 331.59438,531.66804 331.61922,531.69451 331.58801,531.77932 C 331.55137,531.87887 331.62169,531.90622 331.90874,531.90405 C 332.19025,531.90195 332.30841,531.85526 332.413,531.70484 z M 331.92641,531.55265 C 331.46549,531.36584 331.5142,530.74273 332.00407,530.55905 C 332.09769,530.52395 332.21794,530.57 332.32548,530.68214 C 332.67684,531.04852 332.36435,531.73016 331.92641,531.55265 z M 334.28404,531.72564 C 334.4337,531.58013 334.46949,531.44994 334.46588,531.06414 C 334.46208,530.65754 334.42977,530.5607 334.25549,530.43341 C 333.89985,530.17367 333.4778,530.21333 333.31971,530.52136 C 333.10373,530.94217 333.09042,531.18435 333.26324,531.5486 C 333.41902,531.8769 333.46096,531.90683 333.76546,531.90683 C 333.98429,531.90683 334.16131,531.84498 334.28404,531.72564 z M 333.4281,531.50131 C 333.17252,531.31464 333.18704,530.88488 333.45777,530.62326 C 333.5738,530.51112 333.66873,530.45709 333.66873,530.50318 C 333.66873,530.54926 333.72353,530.58697 333.79052,530.58697 C 333.96899,530.58697 334.16869,530.92889 334.11738,531.14661 C 334.09297,531.25015 334.06881,531.39428 334.06368,531.46687 C 334.05107,531.64548 333.65489,531.66695 333.4281,531.50131 z M 332.90507,530.37286 C 332.77754,530.23746 332.74247,530.35601 332.80134,530.72357 L 332.85697,531.07091 L 332.9197,530.76294 C 332.9542,530.59356 332.94762,530.41803 332.90507,530.37286 z M 330.04024,537.46131 C 330.04024,537.41902 330.14051,537.19733 330.26306,536.96869 C 330.42256,536.67113 330.49779,536.37945 330.52778,535.94237 C 330.56124,535.45473 330.60278,535.31326 330.73402,535.24003 C 330.82441,535.18959 330.95832,535.00302 331.03161,534.82543 L 331.16486,534.50254 L 331.27979,534.8985 C 331.70882,536.37658 331.32652,537.53823 330.41104,537.53823 C 330.2071,537.53823 330.04024,537.50362 330.04024,537.46131 z M 334.67976,537.20532 C 334.41506,536.92931 334.35077,536.79024 334.3035,536.39142 C 334.24302,535.8811 334.45603,534.63453 334.60371,534.63453 C 334.6464,534.63453 334.68133,534.69783 334.68133,534.77521 C 334.68133,534.85258 334.78911,535.02088 334.92085,535.1492 C 335.12012,535.3433 335.16855,535.47655 335.20903,535.94211 C 335.23923,536.28939 335.34045,536.66804 335.47581,536.9401 C 335.59578,537.1812 335.69393,537.41442 335.69393,537.45835 C 335.69393,537.50228 335.53757,537.53823 335.34647,537.53823 C 335.05693,537.53823 334.94579,537.48274 334.67976,537.20532 z M 328.77449,537.37411 C 328.77449,537.33224 328.85475,537.1916 328.95284,537.06155 C 329.28052,536.62717 329.37822,536.08884 329.32146,535.03049 L 329.26955,534.0626 L 329.5734,534.41456 C 330.35466,535.31951 330.37777,535.3567 330.37777,535.70876 C 330.37777,536.76366 329.88799,537.45023 329.13544,537.45023 C 328.93692,537.45023 328.77449,537.41597 328.77449,537.37411 z M 335.95047,537.21972 C 335.63359,536.94169 335.45749,536.52955 335.38652,535.89984 C 335.33654,535.45638 335.34955,535.41107 335.61923,535.08923 C 335.77634,534.90175 336.0116,534.60308 336.14202,534.42554 C 336.37128,534.11344 336.6031,534.06609 336.49755,534.35294 C 336.4691,534.43024 336.44619,534.92005 336.44665,535.44138 C 336.4475,536.41885 336.57257,536.88777 336.91039,537.18012 C 337.10972,537.35262 336.99085,537.45023 336.58145,537.45023 C 336.30725,537.45023 336.14607,537.39135 335.95047,537.21972 z M 327.82883,537.22759 C 327.79602,537.19291 327.85898,537.04074 327.96872,536.88943 C 328.2707,536.47305 328.36685,535.94917 328.34409,534.84413 C 328.33275,534.29385 328.34548,533.82068 328.37237,533.79264 C 328.39927,533.76459 328.53732,533.80423 328.67916,533.88072 C 329.00823,534.05816 329.1335,534.50302 329.13921,535.51443 C 329.14354,536.28187 328.98241,536.8088 328.65739,537.09007 C 328.50582,537.22125 327.9155,537.31922 327.82883,537.22759 z M 337.20008,537.14049 C 337.07703,537.0708 336.8919,536.83185 336.78867,536.60949 C 336.62111,536.24855 336.60503,536.10452 336.63872,535.26589 C 336.65947,534.74926 336.72039,534.24164 336.77409,534.13785 C 336.86842,533.95553 337.37193,533.70033 337.39097,533.82519 C 337.39612,533.85898 337.40561,534.42458 337.41206,535.08208 C 337.42363,536.26143 337.42739,536.28361 337.6905,536.72511 C 337.83719,536.97126 337.93528,537.19552 337.90849,537.22345 C 337.82026,537.31546 337.42784,537.2695 337.20008,537.14049 z M 326.77038,536.99507 C 326.52953,536.86863 326.53225,536.82427 326.79674,536.56517 C 327.28453,536.08733 327.37685,535.80932 327.42323,534.67853 L 327.46655,533.62264 L 327.7037,533.59429 C 328.13168,533.54311 328.18385,533.6742 328.18333,534.79928 C 328.1828,535.97233 328.09727,536.38458 327.77778,536.75405 C 327.52312,537.04855 327.07601,537.15552 326.77038,536.99507 z M 338.17649,536.93688 C 337.75728,536.663 337.60433,536.21792 337.56675,535.16247 C 337.54866,534.65433 337.56824,534.09999 337.61028,533.93061 C 337.67767,533.65905 337.72233,533.61949 337.98803,533.59597 C 338.27082,533.57094 338.29197,533.58717 338.33198,533.85994 C 338.35542,534.0198 338.35509,534.43019 338.33123,534.77194 C 338.2811,535.49022 338.43465,535.95963 338.90087,536.51332 C 339.21227,536.88314 339.17761,536.99087 338.72445,537.06168 C 338.52651,537.0926 338.35509,537.05356 338.17649,536.93688 z M 325.37266,536.56887 C 325.11573,536.48845 324.89285,536.32523 324.89285,536.21749 C 324.89285,536.18047 325.13018,536.04427 325.42025,535.91481 C 325.71032,535.78537 326.03406,535.60546 326.13968,535.51501 C 326.42515,535.27057 326.64469,534.67084 326.71164,533.95261 C 326.76057,533.42759 326.7972,533.31468 326.91862,533.31468 C 327.22131,533.31468 327.28229,533.53773 327.23326,534.46549 C 327.17244,535.61641 326.92434,536.20229 326.3818,536.47615 C 326.00072,536.66853 325.76131,536.69051 325.37266,536.56887 z M 339.43879,536.53651 C 339.13305,536.39242 338.79777,535.95483 338.65568,535.51443 C 338.60103,535.34506 338.53318,534.84147 338.5049,534.39535 C 338.4507,533.54034 338.51541,533.31468 338.8148,533.31468 C 338.93279,533.31468 338.97225,533.42254 339.016,533.86461 C 339.13949,535.11273 339.41467,535.53999 340.33837,535.91789 C 340.6614,536.05005 340.92571,536.18701 340.92571,536.22224 C 340.92571,536.32784 340.33306,536.58788 340.00663,536.62552 C 339.83916,536.64483 339.58364,536.60477 339.43879,536.53651 z M 332.60197,535.97639 C 332.63073,535.79491 332.65469,535.5745 332.6552,535.4866 C 332.65591,535.36432 332.71065,535.33331 332.88818,535.35461 C 333.10462,535.38058 333.12195,535.41354 333.14574,535.8444 L 333.17125,536.30635 L 332.86046,536.30635 L 332.54966,536.30635 L 332.60197,535.97639 z M 331.98106,535.77841 C 331.98106,535.68162 332.01903,535.60243 332.06544,535.60243 C 332.11185,535.60243 332.14983,535.68162 332.14983,535.77841 C 332.14983,535.8752 332.11185,535.95439 332.06544,535.95439 C 332.01903,535.95439 331.98106,535.8752 331.98106,535.77841 z M 332.30833,535.8444 C 332.26839,535.41651 332.29064,535.21701 332.38188,535.18491 C 332.4561,535.15881 332.48736,535.26735 332.48736,535.55111 C 332.48736,535.77291 332.44939,535.95439 332.40298,535.95439 C 332.35657,535.95439 332.31397,535.90489 332.30833,535.8444 z M 333.26384,535.58701 C 333.30593,535.06325 333.49996,535.03374 333.49996,535.55111 C 333.49996,535.85934 333.46866,535.95439 333.36714,535.95439 C 333.2628,535.95439 333.24065,535.87563 333.26384,535.58701 z M 333.58435,535.77841 C 333.58435,535.68162 333.62232,535.60243 333.66873,535.60243 C 333.71514,535.60243 333.75311,535.68162 333.75311,535.77841 C 333.75311,535.8752 333.71514,535.95439 333.66873,535.95439 C 333.62232,535.95439 333.58435,535.8752 333.58435,535.77841 z M 340.75694,535.84876 C 339.95181,535.70379 339.36261,534.96467 339.13333,533.81204 C 339.04015,533.34359 339.04477,533.287 339.1849,533.18015 C 339.4086,533.00958 339.50398,533.09062 339.78653,533.6914 C 340.06603,534.28568 340.55052,534.73953 341.07551,534.89885 C 341.24838,534.95131 341.70309,535.04086 342.08598,535.09785 C 342.46887,535.15484 342.78214,535.2442 342.78214,535.29642 C 342.78214,535.44499 342.02512,535.79237 341.55858,535.85788 C 341.32653,535.89047 340.96579,535.88635 340.75694,535.84876 z M 323.43724,535.63209 C 323.17037,535.50508 322.95203,535.35621 322.95203,535.30127 C 322.95203,535.24183 323.26816,535.15703 323.73258,535.09187 C 324.98416,534.91627 325.69705,534.44426 326.08232,533.53603 C 326.27816,533.0744 326.31694,533.03869 326.50723,533.14489 C 326.70108,533.25306 326.70815,533.53841 326.53309,534.18881 C 326.36419,534.81632 325.91462,535.46109 325.48757,535.68827 C 324.97999,535.95829 324.07021,535.93336 323.43724,535.63209 z M 331.98106,535.0253 C 331.98106,534.78027 332.0139,534.64531 332.06544,534.67853 C 332.11185,534.70844 332.14983,534.88896 332.14983,535.07968 C 332.14983,535.2704 332.11185,535.42645 332.06544,535.42645 C 332.01903,535.42645 331.98106,535.24593 331.98106,535.0253 z M 333.58435,535.07968 C 333.58435,534.74715 333.69213,534.54844 333.78631,534.70735 C 333.85221,534.81853 333.74348,535.42645 333.65769,535.42645 C 333.61735,535.42645 333.58435,535.2704 333.58435,535.07968 z M 332.62472,535.11604 C 332.59558,535.03687 332.57174,534.81695 332.57174,534.62733 C 332.57174,534.29101 332.57908,534.28257 332.8715,534.28257 L 333.17125,534.28257 L 333.14574,534.74452 C 333.12228,535.16951 333.10253,535.20861 332.89896,535.23323 C 332.75478,535.25067 332.65923,535.20984 332.62472,535.11604 z M 332.28817,534.92545 C 332.25849,534.89449 332.23421,534.65007 332.23421,534.3823 C 332.23421,533.80546 332.36334,533.86839 332.43144,534.47841 C 332.47474,534.86627 332.41379,535.05644 332.28817,534.92545 z M 333.3312,534.50774 C 333.3312,534.07431 333.42761,533.82182 333.52693,533.99516 C 333.59172,534.10824 333.48356,534.9865 333.40484,534.9865 C 333.36434,534.9865 333.3312,534.77105 333.3312,534.50774 z M 341.6198,534.7072 C 340.70821,534.59963 340.13231,534.19567 339.73614,533.38591 C 339.5806,533.06801 339.57955,532.69874 339.73417,532.69874 C 339.76874,532.69874 339.95283,532.77724 340.14327,532.87318 C 341.05032,533.33015 342.77533,533.78287 344.0268,533.8924 C 344.40969,533.92592 344.72296,533.98293 344.72296,534.01912 C 344.72296,534.10144 344.03942,534.4093 343.56259,534.54174 C 342.9701,534.7063 342.18137,534.77347 341.6198,534.7072 z M 322.27696,534.55469 C 321.59114,534.35808 321.0956,534.14018 321.0956,534.03522 C 321.0956,533.99104 321.37795,533.9282 321.72304,533.89559 C 322.99398,533.7755 324.34379,533.43253 325.42862,532.95406 C 325.7465,532.81386 326.04079,532.72119 326.08259,532.74813 C 326.22755,532.84155 326.15738,533.19424 325.91433,533.59388 C 325.42503,534.3984 324.7393,534.72572 323.56086,534.71723 C 323.13126,534.71414 322.59737,534.64655 322.27696,534.55469 z M 331.86548,534.26057 C 331.77894,533.92383 331.80403,533.64914 331.91777,533.68814 C 332.04036,533.73018 332.11409,534.45855 331.99575,534.45855 C 331.95209,534.45855 331.89346,534.36946 331.86548,534.26057 z M 333.66873,534.34489 C 333.66873,534.06959 333.77814,533.66664 333.8529,533.66664 C 333.97075,533.66664 333.89634,534.39517 333.77421,534.43704 C 333.71619,534.45695 333.66873,534.41547 333.66873,534.34489 z M 332.62774,534.0406 C 332.60665,534.0043 332.57593,533.77697 332.55947,533.53541 L 332.52955,533.09623 L 332.86709,533.12566 C 333.05273,533.14184 333.21601,533.16658 333.22993,533.18061 C 333.24385,533.19465 333.22946,533.40874 333.19796,533.65636 C 333.14444,534.07711 333.12515,534.10658 332.90339,534.10658 C 332.77287,534.10658 332.64883,534.07689 332.62774,534.0406 z M 333.38242,533.70343 C 333.28519,533.43923 333.32934,533.07027 333.46467,533.01612 C 333.66539,532.9358 333.66873,532.93985 333.66873,533.26348 C 333.66873,533.6025 333.59876,533.84261 333.49996,533.84261 C 333.46348,533.84261 333.41059,533.77999 333.38242,533.70343 z M 332.10667,533.39673 C 332.04139,532.99382 332.06579,532.93461 332.26432,533.01405 C 332.36008,533.05236 332.40298,533.1755 332.40298,533.41208 C 332.40298,533.88767 332.18438,533.87636 332.10667,533.39673 z M 333.807,533.11669 C 333.85736,532.73182 333.96415,532.52276 334.11037,532.52276 C 334.16051,532.52276 334.17143,532.65447 334.13773,532.85272 C 334.04831,533.37886 334.00252,533.49065 333.87648,533.49065 C 333.78576,533.49065 333.76952,533.40322 333.807,533.11669 z M 321.64718,533.18128 C 320.62033,533.00646 319.27861,532.63905 318.81724,532.40633 L 318.43752,532.21479 L 322.10266,532.19185 C 325.9099,532.16801 325.99904,532.17599 325.82011,532.52462 C 325.77965,532.60345 325.47904,532.79652 325.15208,532.95366 C 324.60017,533.21893 324.48048,533.24192 323.48057,533.27471 C 322.7791,533.29772 322.1398,533.26513 321.64718,533.18128 z M 341.29434,533.18962 C 340.4714,532.99302 339.7885,532.55844 339.88604,532.29342 C 339.92364,532.19122 340.53405,532.17079 343.55062,532.17079 C 345.61342,532.17079 347.17008,532.20452 347.17008,532.24923 C 347.17008,532.40732 345.86261,532.83763 344.59638,533.09627 C 343.62385,533.29492 341.935,533.34266 341.29434,533.18962 z M 321.22217,531.93463 C 320.81316,531.83472 317.95626,530.99033 317.38272,530.79982 C 316.75404,530.59099 316.75264,530.58985 317.17177,530.62705 C 317.40382,530.64766 318.44807,530.78428 319.49231,530.93066 C 320.53656,531.07703 322.24532,531.29716 323.28957,531.41982 C 325.36881,531.66405 325.74176,531.73083 325.76403,531.86283 C 325.77905,531.95186 321.56546,532.01847 321.22217,531.93463 z M 339.99749,531.87056 C 339.99749,531.71894 339.9816,531.72163 343.16187,531.33455 C 345.71239,531.02413 348.64132,530.61586 348.83665,530.54355 C 348.89467,530.52207 348.94213,530.53708 348.94213,530.57691 C 348.94213,530.6522 348.8052,530.696 346.04269,531.5044 L 344.3668,531.99482 L 342.18214,531.99482 C 340.35692,531.99482 339.99749,531.97438 339.99749,531.87056 z M 325.43701,531.50241 C 325.38822,531.4812 324.34398,531.3479 323.11647,531.20616 L 320.88464,530.94847 L 318.81724,530.11731 C 315.17462,528.65287 315.23426,528.61595 319.40793,529.75159 C 321.10192,530.21253 323.2094,530.77279 324.09121,530.99662 C 325.55078,531.36711 326.12894,531.56644 325.69027,531.54791 C 325.59977,531.54409 325.48581,531.52362 325.43701,531.50241 z M 339.93331,531.50741 C 339.96763,531.47 340.93593,531.19237 342.08509,530.89046 C 343.23425,530.58855 345.35609,530.02059 346.80029,529.62834 C 348.2445,529.23608 349.4767,528.91514 349.53853,528.91514 C 349.88694,528.91514 349.24508,529.20815 346.5372,530.2852 L 344.84954,530.95648 L 342.61337,531.2097 C 341.38349,531.34898 340.26329,531.48824 340.12406,531.51917 C 339.98483,531.55011 339.89899,531.54481 339.93331,531.50741 z M 323.50052,530.68328 C 320.51471,529.87576 319.636,529.59676 318.64213,529.14066 C 317.62985,528.67611 316.33792,527.94098 315.98841,527.63063 L 315.73725,527.40762 L 315.9904,527.46251 C 316.78171,527.63413 325.9886,530.90831 326.14839,531.07493 C 326.21241,531.14168 325.97903,531.28962 325.82107,531.28242 C 325.75145,531.27925 324.70721,531.00964 323.50052,530.68328 z M 339.71621,531.23222 C 339.54749,531.05629 339.64486,531.00992 341.93831,530.17379 C 345.48332,528.88136 349.68778,527.41931 349.85938,527.41931 C 350.18472,527.41931 349.34367,527.99976 348.00076,528.70205 C 346.46891,529.50314 345.59416,529.80075 341.96748,530.75474 C 339.81036,531.32217 339.80379,531.32355 339.71621,531.23222 z M 321.00261,528.97154 C 319.768,528.52916 318.55288,528.05185 318.30234,527.91083 C 317.14892,527.26162 315.16115,525.74693 315.28843,525.61422 C 315.31037,525.59134 315.95194,525.93383 316.71415,526.37531 C 318.33828,527.31602 320.06884,528.20631 322.06601,529.12861 C 322.85499,529.49297 323.44357,529.78766 323.37395,529.78346 C 323.30433,529.77928 322.23723,529.41392 321.00261,528.97154 z M 342.40242,529.70388 C 342.49524,529.66029 343.2357,529.32141 344.04789,528.95082 C 345.77314,528.16361 347.48383,527.27757 349.19171,526.2866 C 349.86271,525.89727 350.42953,525.59731 350.45131,525.62003 C 350.58318,525.75753 349.08525,526.92297 347.70483,527.7569 C 347.31236,527.99399 346.27665,528.41539 344.7514,528.95854 C 342.67435,529.69819 341.87332,529.95236 342.40242,529.70388 z "
         id="path2059" />
      <path
         d="M 304.02218 485.8157 A 1.553398 1.553398 0 1 1  300.91538,485.8157 A 1.553398 1.553398 0 1 1  304.02218 485.8157 z"
         sodipodi:ry="1.553398"
         sodipodi:rx="1.553398"
         sodipodi:cy="485.8157"
         sodipodi:cx="302.46878"
         id="path11851"
         style="opacity:1;fill:black;fill-opacity:1;stroke:none;stroke-width:1.08779526;stroke-linecap:round;stroke-linejoin:round;stroke-miterlimit:4;stroke-dasharray:none;stroke-opacity:1"
         sodipodi:type="arc" />
      <path
         transform="translate(15.31208,-8.210803)"
         d="M 304.02218 485.8157 A 1.553398 1.553398 0 1 1  300.91538,485.8157 A 1.553398 1.553398 0 1 1  304.02218 485.8157 z"
         sodipodi:ry="1.553398"
         sodipodi:rx="1.553398"
         sodipodi:cy="485.8157"
         sodipodi:cx="302.46878"
         id="path12738"
         style="opacity:1;fill:black;fill-opacity:1;stroke:none;stroke-width:1.08779526;stroke-linecap:round;stroke-linejoin:round;stroke-miterlimit:4;stroke-dasharray:none;stroke-opacity:1"
         sodipodi:type="arc" />
      <path
         sodipodi:nodetypes="csc"
         id="path12756"
         d="M 327.74989,490.53472 C 324.78121,494.71067 318.38905,495.46494 315.2668,492.57002 C 314.99531,492.3183 318.33853,498.38743 318.33853,498.38743"
         style="fill:none;fill-opacity:0.75;fill-rule:evenodd;stroke:black;stroke-width:1.70787418;stroke-linecap:butt;stroke-linejoin:miter;stroke-miterlimit:4.30000019;stroke-dasharray:none;stroke-opacity:1" />
      <path
         sodipodi:nodetypes="csc"
         id="path15413"
         d="M 307.60687,470.64924 C 304.36834,466.87043 298.15963,466.92155 295.42986,470.19018 C 295.1925,470.4744 297.83986,464.02304 297.83986,464.02304"
         style="fill:none;fill-opacity:0.75;fill-rule:evenodd;stroke:black;stroke-width:1.70787418;stroke-linecap:butt;stroke-linejoin:miter;stroke-miterlimit:4.5;stroke-dasharray:none;stroke-opacity:1" />
    </g>
    <path
       sodipodi:type="arc"
       style="fill:url(#linearGradient16364);fill-opacity:1;stroke:none;stroke-width:1.08779526;stroke-linecap:round;stroke-linejoin:round;stroke-miterlimit:4;stroke-dasharray:none;stroke-opacity:1"
       id="path16336"
       sodipodi:cx="300.91541"
       sodipodi:cy="480.7117"
       sodipodi:rx="7.1012483"
       sodipodi:ry="9.7642164"
       d="M 308.01665 480.7117 A 7.1012483 9.7642164 0 1 1  293.81416,480.7117 A 7.1012483 9.7642164 0 1 1  308.01665 480.7117 z"
       transform="translate(-171.6204,-4.882582)" />
    <path
       sodipodi:type="arc"
       style="fill:url(#linearGradient16366);fill-opacity:1;stroke:none;stroke-width:1.08779526;stroke-linecap:round;stroke-linejoin:round;stroke-miterlimit:4;stroke-dasharray:none;stroke-opacity:1"
       id="path16338"
       sodipodi:cx="300.91541"
       sodipodi:cy="480.7117"
       sodipodi:rx="7.1012483"
       sodipodi:ry="9.7642164"
       d="M 308.01665 480.7117 A 7.1012483 9.7642164 0 1 1  293.81416,480.7117 A 7.1012483 9.7642164 0 1 1  308.01665 480.7117 z"
       transform="translate(-152.5359,-3.994907)" />
    <path
       sodipodi:type="arc"
       style="fill:none;fill-opacity:1;stroke:#425d90;stroke-width:1.12878966;stroke-linecap:round;stroke-linejoin:round;stroke-miterlimit:4;stroke-dasharray:none;stroke-opacity:1"
       id="path16342"
       sodipodi:cx="384.79889"
       sodipodi:cy="568.81158"
       sodipodi:rx="75.006935"
       sodipodi:ry="34.396671"
       d="M 459.80582 568.81158 A 75.006935 34.396671 0 1 1  309.79195,568.81158 A 75.006935 34.396671 0 1 1  459.80582 568.81158 z"
       transform="matrix(-0.749713,0.831574,-0.617324,-0.553992,778.9109,471.8458)" />
    <path
       sodipodi:type="arc"
       style="fill:none;fill-opacity:1;stroke:#425d90;stroke-width:1.08683348;stroke-linecap:round;stroke-linejoin:round;stroke-miterlimit:4;stroke-dasharray:none;stroke-opacity:1"
       id="path16344"
       sodipodi:cx="384.79889"
       sodipodi:cy="568.81158"
       sodipodi:rx="75.006935"
       sodipodi:ry="34.396671"
       d="M 459.80582 568.81158 A 75.006935 34.396671 0 1 1  309.79195,568.81158 A 75.006935 34.396671 0 1 1  459.80582 568.81158 z"
       transform="matrix(-0.809664,-0.577528,0.6713,-0.758435,66.11104,1131.687)" />
    <flowRoot
       xml:space="preserve"
       id="flowRoot16346"
       transform="matrix(2.59069,0,0,2.959377,-655.862,-952.9953)"><flowRegion
         id="flowRegion16348"><rect
           id="rect16350"
           width="139.362"
           height="41.719833"
           x="279.61166"
           y="476.71725" /></flowRegion><flowPara
         id="flowPara16352">Satoorn</flowPara></flowRoot>    <path
       id="path16354"
       d="M 177.11895,526.05788 C 176.51573,526.03239 176.5072,526.02869 176.50923,525.79391 C 176.51036,525.66295 176.54562,525.39741 176.58759,525.20383 C 176.74391,524.48264 176.88747,522.22384 176.92452,519.9024 C 176.92876,519.63688 176.94957,519.61643 177.2154,519.61643 C 177.3765,519.61643 177.52064,519.66785 177.54499,519.73403 C 177.5688,519.79872 177.5928,520.50154 177.59833,521.29587 C 177.60957,522.90833 177.71413,524.29605 177.90121,525.31548 C 177.96986,525.68962 178.02605,526.00103 178.02605,526.00748 C 178.02612,526.0576 177.63139,526.07954 177.11895,526.05788 z M 175.36907,525.24965 C 175.34098,525.20225 175.3527,525.09336 175.39511,525.00767 C 175.54745,524.69992 176.09087,522.44674 176.37348,520.95106 C 176.64524,519.51287 176.70973,519.27037 176.79643,519.36078 C 176.84958,519.4162 176.55095,523.29134 176.41395,524.32392 C 176.27213,525.39283 176.30472,525.33581 175.83547,525.33581 C 175.60704,525.33581 175.39716,525.29703 175.36907,525.24965 z M 178.11977,524.78261 C 178.06896,524.47834 177.95176,523.32017 177.85933,522.20888 C 177.7669,521.0976 177.67315,519.9975 177.65099,519.76421 C 177.62269,519.46635 177.63983,519.35018 177.70853,519.37406 C 177.76234,519.39277 177.94667,520.13798 178.11815,521.03008 C 178.43489,522.67788 178.6503,523.60908 178.94958,524.62429 C 179.04108,524.93468 179.09632,525.22175 179.07233,525.26222 C 179.04834,525.3027 178.84499,525.33581 178.62044,525.33581 L 178.21216,525.33581 L 178.11977,524.78261 z M 174.54675,524.50876 C 174.28071,524.44915 174.03721,524.37344 174.00563,524.34051 C 173.97406,524.30758 174.05312,524.132 174.18132,523.95032 C 175.28869,522.38108 175.99933,521.00307 176.2415,519.9554 C 176.3225,519.605 176.42532,519.35344 176.48768,519.35308 C 176.60713,519.35238 176.61549,519.30077 176.23859,520.89229 C 175.57375,523.69975 175.27609,524.65223 175.07265,524.62317 C 175.04944,524.61985 174.81279,524.56837 174.54675,524.50876 z M 179.22275,524.51913 C 179.11019,524.37772 178.80205,523.27509 178.31759,521.28019 C 177.92545,519.66544 177.88602,519.39871 178.02607,519.30846 C 178.07335,519.27799 178.11045,519.34669 178.11045,519.46472 C 178.11045,519.99551 178.75601,521.56658 179.42017,522.6521 C 179.79009,523.25672 180.39414,524.12094 180.50521,524.20447 C 180.61304,524.28558 180.33203,524.4195 179.81506,524.53338 C 179.27158,524.65311 179.3305,524.65453 179.22275,524.51913 z M 174.33429,522.06292 C 174.22987,522.00923 174.1445,521.94163 174.14459,521.91273 C 174.14468,521.88383 174.3308,521.72797 174.5582,521.56636 C 175.17176,521.13032 175.44917,520.81577 175.83779,520.11548 L 176.18799,519.48444 L 176.09662,518.80349 C 175.98792,517.99333 175.73599,517.41666 175.49074,517.41666 C 175.37094,517.41666 175.30706,517.49238 175.27181,517.67613 C 175.14298,518.34782 174.67046,518.31493 174.27704,517.60693 C 174.06331,517.22228 173.95501,517.12806 173.4754,516.90946 C 173.17041,516.77045 172.52952,516.54509 172.0512,516.40865 C 171.11994,516.14302 170.70802,515.91347 170.53951,515.56622 C 170.38119,515.23996 170.40801,514.70661 170.59661,514.43042 L 170.76167,514.1887 L 169.85826,513.73998 C 168.76673,513.19781 167.0771,512.40119 167.01867,512.40119 C 166.90218,512.40119 163.70734,510.79053 163.56581,510.66045 C 163.02704,510.16526 160.56999,507.07747 160.65145,506.99797 C 160.67005,506.97981 161.17891,507.46071 161.78226,508.06662 C 163.14723,509.43743 164.39796,510.48921 165.39986,511.10879 C 166.31605,511.67537 166.54992,511.80566 166.54992,511.74949 C 166.54992,511.72642 166.19867,511.49085 165.76937,511.22601 C 164.61903,510.51635 164.13209,509.91454 163.44313,508.35103 C 163.096,507.56326 162.71149,506.43143 162.7702,506.37021 C 162.78939,506.35021 162.87453,506.54082 162.9594,506.79379 C 163.39684,508.09769 164.24778,509.46151 165.25524,510.47343 C 165.97369,511.19504 167.65583,512.41947 168.47265,512.81537 C 169.69261,513.40666 171.28409,513.99049 171.89674,514.07149 C 172.56382,514.15969 173.74526,514.52155 174.26481,514.79682 C 174.44705,514.89336 174.79092,515.16443 175.02896,515.39919 L 175.46177,515.82602 L 175.46226,514.61955 C 175.46267,513.60126 175.53027,512.84115 175.62041,512.84115 C 175.63268,512.84115 175.78399,512.9027 175.95665,512.97793 C 176.12931,513.05315 176.3333,513.10071 176.40997,513.08361 C 176.48663,513.06651 176.34794,512.98126 176.10176,512.89418 C 175.77502,512.77859 175.66133,512.6966 175.6807,512.59051 C 175.7268,512.33815 176.06418,512.37027 176.40011,512.65901 C 176.57296,512.80757 176.77017,512.92914 176.83836,512.92914 C 176.90654,512.92914 176.8013,512.80565 176.60448,512.65472 C 176.40766,512.50379 176.26093,512.33551 176.27841,512.28076 C 176.33777,512.09486 176.5682,512.12809 176.83345,512.36083 C 176.97887,512.48843 177.09785,512.55205 177.09785,512.5022 C 177.09785,512.45235 177.05803,512.38592 177.00937,512.35456 C 176.94888,512.31558 176.95215,512.25826 177.0197,512.17339 C 177.22361,511.91719 177.5768,512.12567 177.42847,512.41468 C 177.37321,512.52233 177.37355,512.57718 177.42945,512.57718 C 177.47586,512.57718 177.5531,512.50067 177.60109,512.40715 C 177.76998,512.0781 178.27405,512.08357 178.15276,512.41314 C 178.12658,512.48428 177.9898,512.61354 177.84881,512.70039 C 177.70782,512.78724 177.61415,512.88089 177.64064,512.90853 C 177.66714,512.93616 177.8601,512.8305 178.06944,512.67374 C 178.46672,512.37624 178.72272,512.3461 178.76804,512.59152 C 178.78747,512.69671 178.67337,512.7779 178.34709,512.891 C 178.10091,512.97635 177.94756,513.06294 178.00631,513.08344 C 178.06506,513.10394 178.27551,513.06302 178.47398,512.9925 L 178.83484,512.86429 L 178.99113,513.37436 C 179.14631,513.88077 179.14315,514.50635 178.97988,515.60324 L 178.92892,515.94559 L 179.28644,515.54114 C 179.48307,515.3187 179.80412,515.03883 179.99988,514.9192 C 180.53721,514.59084 181.77795,514.18291 182.57923,514.07116 C 182.97178,514.01641 183.3555,513.93673 183.43193,513.89406 C 183.50837,513.8514 183.87506,513.70076 184.24679,513.55929 C 185.78194,512.97509 186.44092,512.62506 187.60359,511.77632 C 188.8749,510.84828 189.33878,510.43091 189.94074,509.67348 C 190.51997,508.94466 190.93133,508.22904 191.33168,507.25374 C 191.7221,506.30264 191.79387,506.25205 191.52976,507.11412 C 191.20087,508.18766 190.42574,509.71205 189.91213,510.29541 C 189.62431,510.62231 189.11702,511.00689 188.48962,511.37379 C 188.18795,511.55022 187.97322,511.69517 188.01244,511.69591 C 188.13211,511.69819 188.99965,511.18035 189.72079,510.6762 C 190.58567,510.07156 191.64914,509.12767 192.8435,507.90462 C 193.3585,507.37726 193.80918,506.94578 193.84502,506.94578 C 193.98487,506.94578 192.49867,508.8783 191.5149,509.97565 C 190.70007,510.88455 190.67476,510.89887 186.23364,512.96253 C 184.30082,513.86066 183.76414,514.13822 183.76414,514.23971 C 183.76414,514.28136 183.8211,514.36474 183.89072,514.42498 C 183.97675,514.49943 184.01729,514.69888 184.01729,515.04769 C 184.01729,515.48069 183.98361,515.59598 183.80169,515.78568 C 183.53834,516.06029 183.15307,516.23387 182.42186,516.40733 C 181.81901,516.55034 181.60412,516.62649 180.89511,516.9483 C 180.51055,517.12285 180.39163,517.23308 180.20134,517.59134 C 180.07503,517.82915 179.90175,518.06275 179.81627,518.11045 C 179.58026,518.24216 179.25945,518.03774 179.20704,517.72226 C 179.17326,517.5189 179.11929,517.46066 178.96464,517.46066 C 178.80518,517.46066 178.7339,517.54504 178.60551,517.88588 C 178.51741,518.11976 178.40969,518.57347 178.36614,518.89412 C 178.28982,519.45608 178.29648,519.49474 178.55062,519.96474 C 178.92337,520.65408 179.25439,521.07559 179.65898,521.37604 C 180.38088,521.91213 180.36936,521.89749 180.18281,522.0416 C 180.09272,522.1112 179.87662,522.16815 179.70258,522.16815 L 179.38615,522.16815 L 178.93352,521.22225 C 178.25518,519.80468 178.1671,519.51684 178.23176,518.92886 C 178.43519,517.07881 178.64427,515.50524 178.70158,515.39288 C 178.75856,515.28116 178.67362,515.26089 178.1484,515.26089 C 177.58684,515.26089 177.51967,515.2797 177.44126,515.45887 C 177.32917,515.71501 177.14882,515.71149 177.03497,515.45094 C 176.9527,515.26267 176.90459,515.24853 176.47306,515.28585 C 176.14785,515.31397 175.95731,515.28907 175.86019,515.20578 C 175.73207,515.0959 175.72438,515.11191 175.77568,515.38188 C 175.80671,515.54521 175.83268,515.72339 175.83339,515.77784 C 175.8341,515.83228 175.8707,515.81743 175.91472,515.74484 C 176.03967,515.53881 176.23399,515.79664 176.30488,516.26249 C 176.35183,516.57105 176.34012,516.64001 176.24631,516.6074 C 176.18182,516.58498 176.08106,516.41143 176.02241,516.22174 L 175.91576,515.87682 L 175.95511,516.31678 C 175.97675,516.55875 176.05959,517.3585 176.13919,518.094 C 176.30751,519.64911 176.31922,519.58514 175.58679,521.11226 C 175.11678,522.09225 175.09237,522.12473 174.81281,522.14236 C 174.65405,522.15238 174.43872,522.11664 174.33429,522.06292 z M 176.77034,514.83893 C 177.1457,514.29907 176.95413,513.56224 176.40132,513.41961 C 176.12494,513.34829 176.05889,513.36424 175.87195,513.54737 C 175.75448,513.66245 175.67727,513.80799 175.70039,513.87081 C 175.72351,513.93363 175.70564,513.98503 175.66068,513.98503 C 175.55393,513.98503 175.55604,514.35068 175.66451,514.64817 C 175.71921,514.7982 175.79373,514.86535 175.87117,514.83437 C 175.95172,514.80213 175.97656,514.8286 175.94535,514.91341 C 175.90871,515.01296 175.97903,515.04031 176.26608,515.03814 C 176.54759,515.03604 176.66575,514.98935 176.77034,514.83893 z M 176.28375,514.68674 C 175.82283,514.49993 175.87154,513.87682 176.36141,513.69314 C 176.45503,513.65804 176.57528,513.70409 176.68282,513.81623 C 177.03418,514.18261 176.72169,514.86425 176.28375,514.68674 z M 178.64138,514.85973 C 178.79104,514.71422 178.82683,514.58403 178.82322,514.19823 C 178.81942,513.79163 178.78711,513.69479 178.61283,513.5675 C 178.25719,513.30776 177.83514,513.34742 177.67705,513.65545 C 177.46107,514.07626 177.44776,514.31844 177.62058,514.68269 C 177.77636,515.01099 177.8183,515.04092 178.1228,515.04092 C 178.34163,515.04092 178.51865,514.97907 178.64138,514.85973 z M 177.78544,514.6354 C 177.52986,514.44873 177.54438,514.01897 177.81511,513.75735 C 177.93114,513.64521 178.02607,513.59118 178.02607,513.63727 C 178.02607,513.68335 178.08087,513.72106 178.14786,513.72106 C 178.32633,513.72106 178.52603,514.06298 178.47472,514.2807 C 178.45031,514.38424 178.42615,514.52837 178.42102,514.60096 C 178.40841,514.77957 178.01223,514.80104 177.78544,514.6354 z M 177.26241,513.50695 C 177.13488,513.37155 177.09981,513.4901 177.15868,513.85766 L 177.21431,514.205 L 177.27704,513.89703 C 177.31154,513.72765 177.30496,513.55212 177.26241,513.50695 z M 174.39758,520.5954 C 174.39758,520.55311 174.49785,520.33142 174.6204,520.10278 C 174.7799,519.80522 174.85513,519.51354 174.88512,519.07646 C 174.91858,518.58882 174.96012,518.44735 175.09136,518.37412 C 175.18175,518.32368 175.31566,518.13711 175.38895,517.95952 L 175.5222,517.63663 L 175.63713,518.03259 C 176.06616,519.51067 175.68386,520.67232 174.76838,520.67232 C 174.56444,520.67232 174.39758,520.63771 174.39758,520.5954 z M 179.0371,520.33941 C 178.7724,520.0634 178.70811,519.92433 178.66084,519.52551 C 178.60036,519.01519 178.81337,517.76862 178.96105,517.76862 C 179.00374,517.76862 179.03867,517.83192 179.03867,517.9093 C 179.03867,517.98667 179.14645,518.15497 179.27819,518.28329 C 179.47746,518.47739 179.52589,518.61064 179.56637,519.0762 C 179.59657,519.42348 179.69779,519.80213 179.83315,520.07419 C 179.95312,520.31529 180.05127,520.54851 180.05127,520.59244 C 180.05127,520.63637 179.89491,520.67232 179.70381,520.67232 C 179.41427,520.67232 179.30313,520.61683 179.0371,520.33941 z M 173.13183,520.5082 C 173.13183,520.46633 173.21209,520.32569 173.31018,520.19564 C 173.63786,519.76126 173.73556,519.22293 173.6788,518.16458 L 173.62689,517.19669 L 173.93074,517.54865 C 174.712,518.4536 174.73511,518.49079 174.73511,518.84285 C 174.73511,519.89775 174.24533,520.58432 173.49278,520.58432 C 173.29426,520.58432 173.13183,520.55006 173.13183,520.5082 z M 180.30781,520.35381 C 179.99093,520.07578 179.81483,519.66364 179.74386,519.03393 C 179.69388,518.59047 179.70689,518.54516 179.97657,518.22332 C 180.13368,518.03584 180.36894,517.73717 180.49936,517.55963 C 180.72862,517.24753 180.96044,517.20018 180.85489,517.48703 C 180.82644,517.56433 180.80353,518.05414 180.80399,518.57547 C 180.80484,519.55294 180.92991,520.02186 181.26773,520.31421 C 181.46706,520.48671 181.34819,520.58432 180.93879,520.58432 C 180.66459,520.58432 180.50341,520.52544 180.30781,520.35381 z M 172.18617,520.36168 C 172.15336,520.327 172.21632,520.17483 172.32606,520.02352 C 172.62804,519.60714 172.72419,519.08326 172.70143,517.97822 C 172.69009,517.42794 172.70282,516.95477 172.72971,516.92673 C 172.75661,516.89868 172.89466,516.93832 173.0365,517.01481 C 173.36557,517.19225 173.49084,517.63711 173.49655,518.64852 C 173.50088,519.41596 173.33975,519.94289 173.01473,520.22416 C 172.86316,520.35534 172.27284,520.45331 172.18617,520.36168 z M 181.55742,520.27458 C 181.43437,520.20489 181.24924,519.96594 181.14601,519.74358 C 180.97845,519.38264 180.96237,519.23861 180.99606,518.39998 C 181.01681,517.88335 181.07773,517.37573 181.13143,517.27194 C 181.22576,517.08962 181.72927,516.83442 181.74831,516.95928 C 181.75346,516.99307 181.76295,517.55867 181.7694,518.21617 C 181.78097,519.39552 181.78473,519.4177 182.04784,519.8592 C 182.19453,520.10535 182.29262,520.32961 182.26583,520.35754 C 182.1776,520.44955 181.78518,520.40359 181.55742,520.27458 z M 171.12772,520.12916 C 170.88687,520.00272 170.88959,519.95836 171.15408,519.69926 C 171.64187,519.22142 171.73419,518.94341 171.78057,517.81262 L 171.82389,516.75673 L 172.06104,516.72838 C 172.48902,516.6772 172.54119,516.80829 172.54067,517.93337 C 172.54014,519.10642 172.45461,519.51867 172.13512,519.88814 C 171.88046,520.18264 171.43335,520.28961 171.12772,520.12916 z M 182.53383,520.07097 C 182.11462,519.79709 181.96167,519.35201 181.92409,518.29656 C 181.906,517.78842 181.92558,517.23408 181.96762,517.0647 C 182.03501,516.79314 182.07967,516.75358 182.34537,516.73006 C 182.62816,516.70503 182.64931,516.72126 182.68932,516.99403 C 182.71276,517.15389 182.71243,517.56428 182.68857,517.90603 C 182.63844,518.62431 182.79199,519.09372 183.25821,519.64741 C 183.56961,520.01723 183.53495,520.12496 183.08179,520.19577 C 182.88385,520.22669 182.71243,520.18765 182.53383,520.07097 z M 169.73,519.70296 C 169.47307,519.62254 169.25019,519.45932 169.25019,519.35158 C 169.25019,519.31456 169.48752,519.17836 169.77759,519.0489 C 170.06766,518.91946 170.3914,518.73955 170.49702,518.6491 C 170.78249,518.40466 171.00203,517.80493 171.06898,517.0867 C 171.11791,516.56168 171.15454,516.44877 171.27596,516.44877 C 171.57865,516.44877 171.63963,516.67182 171.5906,517.59958 C 171.52978,518.7505 171.28168,519.33638 170.73914,519.61024 C 170.35806,519.80262 170.11865,519.8246 169.73,519.70296 z M 183.79613,519.6706 C 183.49039,519.52651 183.15511,519.08892 183.01302,518.64852 C 182.95837,518.47915 182.89052,517.97556 182.86224,517.52944 C 182.80804,516.67443 182.87275,516.44877 183.17214,516.44877 C 183.29013,516.44877 183.32959,516.55663 183.37334,516.9987 C 183.49683,518.24682 183.77201,518.67408 184.69571,519.05198 C 185.01874,519.18414 185.28305,519.3211 185.28305,519.35633 C 185.28305,519.46193 184.6904,519.72197 184.36397,519.75961 C 184.1965,519.77892 183.94098,519.73886 183.79613,519.6706 z M 176.95931,519.11048 C 176.98807,518.929 177.01203,518.70859 177.01254,518.62069 C 177.01325,518.49841 177.06799,518.4674 177.24552,518.4887 C 177.46196,518.51467 177.47929,518.54763 177.50308,518.97849 L 177.52859,519.44044 L 177.2178,519.44044 L 176.907,519.44044 L 176.95931,519.11048 z M 176.3384,518.9125 C 176.3384,518.81571 176.37637,518.73652 176.42278,518.73652 C 176.46919,518.73652 176.50717,518.81571 176.50717,518.9125 C 176.50717,519.00929 176.46919,519.08848 176.42278,519.08848 C 176.37637,519.08848 176.3384,519.00929 176.3384,518.9125 z M 176.66567,518.97849 C 176.62573,518.5506 176.64798,518.3511 176.73922,518.319 C 176.81344,518.2929 176.8447,518.40144 176.8447,518.6852 C 176.8447,518.907 176.80673,519.08848 176.76032,519.08848 C 176.71391,519.08848 176.67131,519.03898 176.66567,518.97849 z M 177.62118,518.7211 C 177.66327,518.19734 177.8573,518.16783 177.8573,518.6852 C 177.8573,518.99343 177.826,519.08848 177.72448,519.08848 C 177.62014,519.08848 177.59799,519.00972 177.62118,518.7211 z M 177.94169,518.9125 C 177.94169,518.81571 177.97966,518.73652 178.02607,518.73652 C 178.07248,518.73652 178.11045,518.81571 178.11045,518.9125 C 178.11045,519.00929 178.07248,519.08848 178.02607,519.08848 C 177.97966,519.08848 177.94169,519.00929 177.94169,518.9125 z M 185.11428,518.98285 C 184.30915,518.83788 183.71995,518.09876 183.49067,516.94613 C 183.39749,516.47768 183.40211,516.42109 183.54224,516.31424 C 183.76594,516.14367 183.86132,516.22471 184.14387,516.82549 C 184.42337,517.41977 184.90786,517.87362 185.43285,518.03294 C 185.60572,518.0854 186.06043,518.17495 186.44332,518.23194 C 186.82621,518.28893 187.13948,518.37829 187.13948,518.43051 C 187.13948,518.57908 186.38246,518.92646 185.91592,518.99197 C 185.68387,519.02456 185.32313,519.02044 185.11428,518.98285 z M 167.79458,518.76618 C 167.52771,518.63917 167.30937,518.4903 167.30937,518.43536 C 167.30937,518.37592 167.6255,518.29112 168.08992,518.22596 C 169.3415,518.05036 170.05439,517.57835 170.43966,516.67012 C 170.6355,516.20849 170.67428,516.17278 170.86457,516.27898 C 171.05842,516.38715 171.06549,516.6725 170.89043,517.3229 C 170.72153,517.95041 170.27196,518.59518 169.84491,518.82236 C 169.33733,519.09238 168.42755,519.06745 167.79458,518.76618 z M 176.3384,518.15939 C 176.3384,517.91436 176.37124,517.7794 176.42278,517.81262 C 176.46919,517.84253 176.50717,518.02305 176.50717,518.21377 C 176.50717,518.40449 176.46919,518.56054 176.42278,518.56054 C 176.37637,518.56054 176.3384,518.38002 176.3384,518.15939 z M 177.94169,518.21377 C 177.94169,517.88124 178.04947,517.68253 178.14365,517.84144 C 178.20955,517.95262 178.10082,518.56054 178.01503,518.56054 C 177.97469,518.56054 177.94169,518.40449 177.94169,518.21377 z M 176.98206,518.25013 C 176.95292,518.17096 176.92908,517.95104 176.92908,517.76142 C 176.92908,517.4251 176.93642,517.41666 177.22884,517.41666 L 177.52859,517.41666 L 177.50308,517.87861 C 177.47962,518.3036 177.45987,518.3427 177.2563,518.36732 C 177.11212,518.38476 177.01657,518.34393 176.98206,518.25013 z M 176.64551,518.05954 C 176.61583,518.02858 176.59155,517.78416 176.59155,517.51639 C 176.59155,516.93955 176.72068,517.00248 176.78878,517.6125 C 176.83208,518.00036 176.77113,518.19053 176.64551,518.05954 z M 177.68854,517.64183 C 177.68854,517.2084 177.78495,516.95591 177.88427,517.12925 C 177.94906,517.24233 177.8409,518.12059 177.76218,518.12059 C 177.72168,518.12059 177.68854,517.90514 177.68854,517.64183 z M 185.97714,517.84129 C 185.06555,517.73372 184.48965,517.32976 184.09348,516.52 C 183.93794,516.2021 183.93689,515.83283 184.09151,515.83283 C 184.12608,515.83283 184.31017,515.91133 184.50061,516.00727 C 185.40766,516.46424 187.13267,516.91696 188.38414,517.02649 C 188.76703,517.06001 189.0803,517.11702 189.0803,517.15321 C 189.0803,517.23553 188.39676,517.54339 187.91993,517.67583 C 187.32744,517.84039 186.53871,517.90756 185.97714,517.84129 z M 166.6343,517.68878 C 165.94848,517.49217 165.45294,517.27427 165.45294,517.16931 C 165.45294,517.12513 165.73529,517.06229 166.08038,517.02968 C 167.35132,516.90959 168.70113,516.56662 169.78596,516.08815 C 170.10384,515.94795 170.39813,515.85528 170.43993,515.88222 C 170.58489,515.97564 170.51472,516.32833 170.27167,516.72797 C 169.78237,517.53249 169.09664,517.85981 167.9182,517.85132 C 167.4886,517.84823 166.95471,517.78064 166.6343,517.68878 z M 176.22282,517.39466 C 176.13628,517.05792 176.16137,516.78323 176.27511,516.82223 C 176.3977,516.86427 176.47143,517.59264 176.35309,517.59264 C 176.30943,517.59264 176.2508,517.50355 176.22282,517.39466 z M 178.02607,517.47898 C 178.02607,517.20368 178.13548,516.80073 178.21024,516.80073 C 178.32809,516.80073 178.25368,517.52926 178.13155,517.57113 C 178.07353,517.59104 178.02607,517.54956 178.02607,517.47898 z M 176.98508,517.17469 C 176.96399,517.13839 176.93327,516.91106 176.91681,516.6695 L 176.88689,516.23032 L 177.22443,516.25975 C 177.41007,516.27593 177.57335,516.30067 177.58727,516.3147 C 177.60119,516.32874 177.5868,516.54283 177.5553,516.79045 C 177.50178,517.2112 177.48249,517.24067 177.26073,517.24067 C 177.13021,517.24067 177.00617,517.21098 176.98508,517.17469 z M 177.73976,516.83752 C 177.64253,516.57332 177.68668,516.20436 177.82201,516.15021 C 178.02273,516.06989 178.02607,516.07394 178.02607,516.39757 C 178.02607,516.73659 177.9561,516.9767 177.8573,516.9767 C 177.82082,516.9767 177.76793,516.91408 177.73976,516.83752 z M 176.46401,516.53082 C 176.39873,516.12791 176.42313,516.0687 176.62166,516.14814 C 176.71742,516.18645 176.76032,516.30959 176.76032,516.54617 C 176.76032,517.02176 176.54172,517.01045 176.46401,516.53082 z M 178.16434,516.25078 C 178.2147,515.86591 178.32149,515.65685 178.46771,515.65685 C 178.51785,515.65685 178.52877,515.78856 178.49507,515.98681 C 178.40565,516.51295 178.35986,516.62474 178.23382,516.62474 C 178.1431,516.62474 178.12686,516.53731 178.16434,516.25078 z M 166.00452,516.31537 C 164.97767,516.14055 163.63595,515.77314 163.17458,515.54042 L 162.79486,515.34888 L 166.46,515.32594 C 170.26724,515.3021 170.35638,515.31008 170.17745,515.65871 C 170.13699,515.73754 169.83638,515.93061 169.50942,516.08775 C 168.95751,516.35302 168.83782,516.37601 167.83791,516.4088 C 167.13644,516.43181 166.49714,516.39922 166.00452,516.31537 z M 185.65168,516.32371 C 184.82874,516.12711 184.14584,515.69253 184.24338,515.42751 C 184.28098,515.32531 184.89139,515.30488 187.90796,515.30488 C 189.97076,515.30488 191.52742,515.33861 191.52742,515.38332 C 191.52742,515.54141 190.21995,515.97172 188.95372,516.23036 C 187.98119,516.42901 186.29234,516.47675 185.65168,516.32371 z M 165.57951,515.06872 C 165.1705,514.96881 162.3136,514.12442 161.74006,513.93391 C 161.11138,513.72508 161.10998,513.72394 161.52911,513.76114 C 161.76116,513.78175 162.80541,513.91837 163.84965,514.06475 C 164.8939,514.21112 166.60266,514.43125 167.64691,514.55391 C 169.72615,514.79814 170.0991,514.86492 170.12137,514.99692 C 170.13639,515.08595 165.9228,515.15256 165.57951,515.06872 z M 184.35483,515.00465 C 184.35483,514.85303 184.33894,514.85572 187.51921,514.46864 C 190.06973,514.15822 192.99866,513.74995 193.19399,513.67764 C 193.25201,513.65616 193.29947,513.67117 193.29947,513.711 C 193.29947,513.78629 193.16254,513.83009 190.40003,514.63849 L 188.72414,515.12891 L 186.53948,515.12891 C 184.71426,515.12891 184.35483,515.10847 184.35483,515.00465 z M 169.79435,514.6365 C 169.74556,514.61529 168.70132,514.48199 167.47381,514.34025 L 165.24198,514.08256 L 163.17458,513.2514 C 159.53196,511.78696 159.5916,511.75004 163.76527,512.88568 C 165.45926,513.34662 167.56674,513.90688 168.44855,514.13071 C 169.90812,514.5012 170.48628,514.70053 170.04761,514.682 C 169.95711,514.67818 169.84315,514.65771 169.79435,514.6365 z M 184.29065,514.6415 C 184.32497,514.60409 185.29327,514.32646 186.44243,514.02455 C 187.59159,513.72264 189.71343,513.15468 191.15763,512.76243 C 192.60184,512.37017 193.83404,512.04923 193.89587,512.04923 C 194.24428,512.04923 193.60242,512.34224 190.89454,513.41929 L 189.20688,514.09057 L 186.97071,514.34379 C 185.74083,514.48307 184.62063,514.62233 184.4814,514.65326 C 184.34217,514.6842 184.25633,514.6789 184.29065,514.6415 z M 167.85786,513.81737 C 164.87205,513.00985 163.99334,512.73085 162.99947,512.27475 C 161.98719,511.8102 160.69526,511.07507 160.34575,510.76472 L 160.09459,510.54171 L 160.34774,510.5966 C 161.13905,510.76822 170.34594,514.0424 170.50573,514.20902 C 170.56975,514.27577 170.33637,514.42371 170.17841,514.41651 C 170.10879,514.41334 169.06455,514.14373 167.85786,513.81737 z M 184.07355,514.36631 C 183.90483,514.19038 184.0022,514.14401 186.29565,513.30788 C 189.84066,512.01545 194.04512,510.5534 194.21672,510.5534 C 194.54206,510.5534 193.70101,511.13385 192.3581,511.83614 C 190.82625,512.63723 189.9515,512.93484 186.32482,513.88883 C 184.1677,514.45626 184.16113,514.45764 184.07355,514.36631 z M 165.35995,512.10563 C 164.12534,511.66325 162.91022,511.18594 162.65968,511.04492 C 161.50626,510.39571 159.51849,508.88102 159.64577,508.74831 C 159.66771,508.72543 160.30928,509.06792 161.07149,509.5094 C 162.69562,510.45011 164.42618,511.3404 166.42335,512.2627 C 167.21233,512.62706 167.80091,512.92175 167.73129,512.91755 C 167.66167,512.91337 166.59457,512.54801 165.35995,512.10563 z M 186.75976,512.83797 C 186.85258,512.79438 187.59304,512.4555 188.40523,512.08491 C 190.13048,511.2977 191.84117,510.41166 193.54905,509.42069 C 194.22005,509.03136 194.78687,508.7314 194.80865,508.75412 C 194.94052,508.89162 193.44259,510.05706 192.06217,510.89099 C 191.6697,511.12808 190.63399,511.54948 189.10874,512.09263 C 187.03169,512.83228 186.23066,513.08645 186.75976,512.83797 z "
       style="fill:#425d90;fill-opacity:1" />
    <path
       sodipodi:type="arc"
       style="fill:black;fill-opacity:1;stroke:none;stroke-width:1.08779526;stroke-linecap:round;stroke-linejoin:round;stroke-miterlimit:4;stroke-dasharray:none;stroke-opacity:1"
       id="path16356"
       sodipodi:cx="302.46878"
       sodipodi:cy="485.8157"
       sodipodi:rx="1.553398"
       sodipodi:ry="1.553398"
       d="M 304.02218 485.8157 A 1.553398 1.553398 0 1 1  300.91538,485.8157 A 1.553398 1.553398 0 1 1  304.02218 485.8157 z"
       transform="translate(-172.0643,-4.43873)" />
    <path
       sodipodi:type="arc"
       style="fill:black;fill-opacity:1;stroke:none;stroke-width:1.08779526;stroke-linecap:round;stroke-linejoin:round;stroke-miterlimit:4;stroke-dasharray:none;stroke-opacity:1"
       id="path16358"
       sodipodi:cx="302.46878"
       sodipodi:cy="485.8157"
       sodipodi:rx="1.553398"
       sodipodi:ry="1.553398"
       d="M 304.02218 485.8157 A 1.553398 1.553398 0 1 1  300.91538,485.8157 A 1.553398 1.553398 0 1 1  304.02218 485.8157 z"
       transform="translate(-156.7522,-12.64953)" />
    <path
       style="fill:none;fill-opacity:0.75;fill-rule:evenodd;stroke:black;stroke-width:1.70787418;stroke-linecap:butt;stroke-linejoin:miter;stroke-miterlimit:4.30000019;stroke-dasharray:none;stroke-opacity:1"
       d="M 155.68559,486.09599 C 152.71691,490.27194 146.32475,491.02621 143.2025,488.13129 C 142.93101,487.87957 146.27423,493.9487 146.27423,493.9487"
       id="path16360"
       sodipodi:nodetypes="csc" />
    <path
       style="fill:none;fill-opacity:0.75;fill-rule:evenodd;stroke:black;stroke-width:1.70787418;stroke-linecap:butt;stroke-linejoin:miter;stroke-miterlimit:4.5;stroke-dasharray:none;stroke-opacity:1"
       d="M 135.54257,466.21051 C 132.30404,462.4317 126.09533,462.48282 123.36556,465.75145 C 123.1282,466.03567 125.77556,459.58431 125.77556,459.58431"
       id="path16362"
       sodipodi:nodetypes="csc" />
  </g>
</svg>
