<?xml version="1.0" encoding="UTF-8" standalone="no"?>
<!-- Created with Inkscape (http://www.inkscape.org/) -->
<svg
   xmlns:dc="http://purl.org/dc/elements/1.1/"
   xmlns:cc="http://web.resource.org/cc/"
   xmlns:rdf="http://www.w3.org/1999/02/22-rdf-syntax-ns#"
   xmlns:svg="http://www.w3.org/2000/svg"
   xmlns="http://www.w3.org/2000/svg"
   xmlns:sodipodi="http://sodipodi.sourceforge.net/DTD/sodipodi-0.dtd"
   xmlns:inkscape="http://www.inkscape.org/namespaces/inkscape"
   width="210mm"
   height="297mm"
   id="svg9215"
   sodipodi:version="0.32"
   inkscape:version="0.44.1"
   sodipodi:docbase="D:\"
   sodipodi:docname="orientationbras.svg"
   inkscape:export-filename="D:\orientationbras.png"
   inkscape:export-xdpi="250"
   inkscape:export-ydpi="250">
  <defs
     id="defs9217">
    <marker
       inkscape:stockid="Arrow2Lend"
       orient="auto"
       refY="0.0"
       refX="0.0"
       id="Arrow2Lend"
       style="overflow:visible;">
      <path
         id="path5581"
         style="font-size:12.0;fill-rule:evenodd;stroke-width:0.62500000;stroke-linejoin:round;"
         d="M 8.7185878,4.0337352 L -2.2072895,0.016013256 L 8.7185884,-4.0017078 C 6.9730900,-1.6296469 6.9831476,1.6157441 8.7185878,4.0337352 z "
         transform="scale(1.1) rotate(180) translate(1,0)" />
    </marker>
  </defs>
  <sodipodi:namedview
     id="base"
     pagecolor="#ffffff"
     bordercolor="#666666"
     borderopacity="1.0"
     inkscape:pageopacity="0.0"
     inkscape:pageshadow="2"
     inkscape:zoom="0.99965488"
     inkscape:cx="390"
     inkscape:cy="461.09313"
     inkscape:document-units="px"
     inkscape:current-layer="layer1"
     inkscape:window-width="1440"
     inkscape:window-height="814"
     inkscape:window-x="-4"
     inkscape:window-y="-4" />
  <metadata
     id="metadata9220">
    <rdf:RDF>
      <cc:Work
         rdf:about="">
        <dc:format>image/svg+xml</dc:format>
        <dc:type
           rdf:resource="http://purl.org/dc/dcmitype/StillImage" />
      </cc:Work>
    </rdf:RDF>
  </metadata>
  <g
     inkscape:label="Calque 1"
     inkscape:groupmode="layer"
     id="layer1">
    <path
       style="opacity:1;fill:#fbfbce;fill-opacity:1;stroke:#ede731;stroke-width:3.39999843;stroke-linecap:round;stroke-linejoin:round;stroke-miterlimit:4;stroke-dasharray:none;stroke-opacity:1"
       d="M 196.06268,319.40978 C 172.19912,324.51528 156.86828,347.57119 161.85125,370.86203 C 165.52679,388.04181 179.21955,400.56331 195.734,403.91097 L 252.43669,427.41193 L 281.18195,345.33175 L 231.01247,326.37707 C 221.28533,319.5759 208.74019,316.69748 196.06268,319.40978 z "
       id="path11016" />
    <path
       sodipodi:type="arc"
       style="opacity:1;fill:#fbfbce;fill-opacity:1;stroke:#ede731;stroke-width:3.4000001;stroke-linecap:round;stroke-linejoin:round;stroke-miterlimit:4;stroke-dasharray:none;stroke-opacity:1"
       id="path11014"
       sodipodi:cx="279.75729"
       sodipodi:cy="395.23318"
       sodipodi:rx="44.209431"
       sodipodi:ry="43.148403"
       d="M 323.96672 395.23318 A 44.209431 43.148403 0 1 1  235.54786,395.23318 A 44.209431 43.148403 0 1 1  323.96672 395.23318 z"
       transform="translate(-17.68377,-10.61026)" />
    <path
       style="opacity:1;fill:#fbe1ce;fill-opacity:1;stroke:#ed7a31;stroke-width:3.39999795;stroke-linecap:round;stroke-linejoin:round;stroke-miterlimit:4;stroke-dasharray:none;stroke-opacity:1"
       d="M 219.72286,419.5685 C 186.2445,436.87276 165.95831,475.39767 169.51629,512.75871 C 172.24588,548.75395 196.41802,582.1639 229.9965,595.6138 C 233.81264,597.96683 241.18273,599.20597 246.29813,600.74349 C 258.70004,602.60924 270.81232,605.94155 283.04101,608.6981 C 283.26613,602.22818 286.76186,599.34069 293.40121,599.23199 C 328.90206,589.47544 356.39505,557.26421 361.20971,520.88082 C 366.32681,487.63732 352.69855,452.40331 326.73149,431.07481 C 329.48794,426.77005 324.02836,426.81134 321.25113,425.43375 C 312.76783,422.37652 305.56687,416.45305 296.77187,413.97839 C 288.99261,410.64409 280.31858,410.64609 272.56304,407.3956 C 265.83307,410.02781 254.0325,407.31498 245.64212,410.2528 C 236.60787,412.06654 227.84813,415.22432 219.72286,419.5685 z "
       id="path9232" />
    <path
       sodipodi:type="arc"
       style="opacity:1;fill:#fbe1ce;fill-opacity:1;stroke:#ed7a31;stroke-width:3.4000001;stroke-linecap:round;stroke-linejoin:round;stroke-miterlimit:4;stroke-dasharray:none;stroke-opacity:1"
       id="path9230"
       sodipodi:cx="287.89182"
       sodipodi:cy="514.77551"
       sodipodi:rx="96.199722"
       sodipodi:ry="97.614426"
       d="M 384.09154 514.77551 A 96.199722 97.614426 0 1 1  191.69209,514.77551 A 96.199722 97.614426 0 1 1  384.09154 514.77551 z"
       transform="matrix(0.908323,-0.418269,0.418269,0.908323,-196.7024,164.7796)" />
    <path
       style="opacity:1;fill:#cee6fb;fill-opacity:1;stroke:#31aeed;stroke-width:4.36043262;stroke-linecap:round;stroke-linejoin:round;stroke-miterlimit:4;stroke-dasharray:none;stroke-opacity:1"
       d="M 285.75589,497.80405 C 272.87079,497.80405 262.41215,508.08293 262.41214,520.7728 C 262.41214,526.558 264.60734,531.85572 268.19339,535.8978 L 268.09964,535.99155 L 268.66214,536.3978 C 270.59627,538.45377 272.89559,540.17691 275.47464,541.42905 L 423.69339,650.5853 L 463.31839,606.74155 L 299.75589,502.3978 L 299.72464,502.36655 C 295.82975,499.49728 290.99046,497.80405 285.75589,497.80405 z "
       id="path9225" />
    <path
       sodipodi:type="arc"
       style="opacity:1;fill:#cee6fb;fill-opacity:1;stroke:#31aeed;stroke-width:3.4000001;stroke-linecap:round;stroke-linejoin:round;stroke-miterlimit:4;stroke-dasharray:none;stroke-opacity:1"
       id="path9223"
       sodipodi:cx="446.33841"
       sodipodi:cy="628.659"
       sodipodi:rx="29.708738"
       sodipodi:ry="29.708738"
       d="M 476.04715 628.659 A 29.708738 29.708738 0 1 1  416.62967,628.659 A 29.708738 29.708738 0 1 1  476.04715 628.659 z" />
    <path
       sodipodi:type="arc"
       style="opacity:1;fill:#fbfbce;fill-opacity:1;stroke:#ede731;stroke-width:3.4000001;stroke-linecap:round;stroke-linejoin:round;stroke-miterlimit:4;stroke-dasharray:none;stroke-opacity:1"
       id="path11908"
       sodipodi:cx="649.70178"
       sodipodi:cy="674.99048"
       sodipodi:rx="238.73093"
       sodipodi:ry="141.82385"
       d="M 888.43271 674.99048 A 238.73093 141.82385 0 1 1  410.97086,674.99048 A 238.73093 141.82385 0 1 1  888.43271 674.99048 z"
       transform="translate(-66.50055,76.26778)" />
    <path
       sodipodi:type="arc"
       style="opacity:1;fill:#fbfbce;fill-opacity:1;stroke:#ede731;stroke-width:3.4000001;stroke-linecap:round;stroke-linejoin:round;stroke-miterlimit:4;stroke-dasharray:none;stroke-opacity:1"
       id="path11906"
       sodipodi:cx="649.70178"
       sodipodi:cy="674.99048"
       sodipodi:rx="238.73093"
       sodipodi:ry="141.82385"
       d="M 888.43271 674.99048 A 238.73093 141.82385 0 1 1  410.97086,674.99048 A 238.73093 141.82385 0 1 1  888.43271 674.99048 z"
       transform="translate(-68.27839,41.04718)" />
    <path
       sodipodi:type="arc"
       style="opacity:1;fill:#ddfbce;fill-opacity:1;stroke:#5ded31;stroke-width:15.38934326;stroke-linecap:round;stroke-linejoin:round;stroke-miterlimit:4;stroke-dasharray:none;stroke-opacity:1"
       id="path10127"
       sodipodi:cx="287.89182"
       sodipodi:cy="514.77551"
       sodipodi:rx="96.199722"
       sodipodi:ry="97.614426"
       d="M 384.09154 514.77551 A 96.199722 97.614426 0 1 1  191.69209,514.77551 A 96.199722 97.614426 0 1 1  384.09154 514.77551 z"
       transform="matrix(0.202295,-9.167049e-2,9.315356e-2,0.199073,166.1379,313.4877)" />
    <path
       sodipodi:type="arc"
       style="opacity:1;fill:#ddfbce;fill-opacity:1;stroke:#5ded31;stroke-width:15.38934326;stroke-linecap:round;stroke-linejoin:round;stroke-miterlimit:4;stroke-dasharray:none;stroke-opacity:1"
       id="path10125"
       sodipodi:cx="287.89182"
       sodipodi:cy="514.77551"
       sodipodi:rx="96.199722"
       sodipodi:ry="97.614426"
       d="M 384.09154 514.77551 A 96.199722 97.614426 0 1 1  191.69209,514.77551 A 96.199722 97.614426 0 1 1  384.09154 514.77551 z"
       transform="matrix(0.202295,-9.167049e-2,9.315356e-2,0.199073,176.2348,316.717)" />
    <path
       sodipodi:type="arc"
       style="opacity:1;fill:#abab96;fill-opacity:0.16532259;stroke:black;stroke-width:3.09415579;stroke-linecap:round;stroke-linejoin:round;stroke-miterlimit:4;stroke-dasharray:none;stroke-opacity:1"
       id="path11980"
       sodipodi:cx="376.62997"
       sodipodi:cy="597.70526"
       sodipodi:rx="230.57957"
       sodipodi:ry="212.57336"
       d="M 607.20955 597.70526 A 230.57957 212.57336 0 1 1  146.0504,597.70526 A 230.57957 212.57336 0 1 1  607.20955 597.70526 z"
       transform="matrix(1.078091,0,0,1.12,-213.4749,-238.282)" />
    <text
       xml:space="preserve"
       style="font-size:12px;font-style:normal;font-weight:normal;fill:black;fill-opacity:1;stroke:none;stroke-width:1px;stroke-linecap:butt;stroke-linejoin:miter;stroke-opacity:1;font-family:Arial Black"
       x="385.13293"
       y="599.20575"
       id="text11910"><tspan
         sodipodi:role="line"
         id="tspan11912"
         x="385.13293"
         y="599.20575">Bras</tspan></text>
    <text
       xml:space="preserve"
       style="font-size:12px;font-style:normal;font-weight:normal;fill:black;fill-opacity:1;stroke:none;stroke-width:1px;stroke-linecap:butt;stroke-linejoin:miter;stroke-opacity:1;font-family:Arial Black"
       x="235.08113"
       y="466.15988"
       id="text11914"><tspan
         sodipodi:role="line"
         id="tspan11916"
         x="235.08113"
         y="466.15988">Grande Roue</tspan></text>
    <text
       xml:space="preserve"
       style="font-size:12px;font-style:normal;font-weight:normal;fill:black;fill-opacity:1;stroke:none;stroke-width:1px;stroke-linecap:butt;stroke-linejoin:miter;stroke-opacity:1;font-family:Arial Black"
       x="528.18225"
       y="691.23755"
       id="text11918"><tspan
         sodipodi:role="line"
         id="tspan11920"
         x="528.18225"
         y="691.23755">Rotors</tspan></text>
    <text
       xml:space="preserve"
       style="font-size:12px;font-style:normal;font-weight:normal;fill:black;fill-opacity:1;stroke:none;stroke-width:1px;stroke-linecap:butt;stroke-linejoin:miter;stroke-opacity:1;font-family:Arial Black"
       x="272.0939"
       y="396.13571"
       id="text11922"><tspan
         sodipodi:role="line"
         id="tspan11924"
         x="272.0939"
         y="396.13571">Petite Roue</tspan></text>
    <text
       xml:space="preserve"
       style="font-size:12px;font-style:normal;font-weight:normal;fill:black;fill-opacity:1;stroke:none;stroke-width:1px;stroke-linecap:butt;stroke-linejoin:miter;stroke-opacity:1;font-family:Arial Black"
       x="176.06076"
       y="348.11914"
       id="text11926"><tspan
         sodipodi:role="line"
         id="tspan11928"
         x="176.06076"
         y="348.11914">Moteur d'orientation</tspan></text>
    <text
       xml:space="preserve"
       style="font-size:12px;font-style:normal;font-weight:normal;fill:black;fill-opacity:1;stroke:none;stroke-width:1px;stroke-linecap:butt;stroke-linejoin:miter;stroke-opacity:1;font-family:Arial Black"
       x="82.028313"
       y="454.15573"
       id="text13752"><tspan
         sodipodi:role="line"
         id="tspan13754"
         x="82.028313"
         y="454.15573">drone</tspan></text>
  </g>
</svg>
